<svg width="137" height="33" viewBox="0 0 137 33"  xmlns="http://www.w3.org/2000/svg">
<path d="M20.8526 16.0484C20.8116 12.5197 23.9276 10.8003 24.0779 10.7233C22.3149 8.31102 19.5816 7.9774 18.6249 7.95174C16.3289 7.72077 14.1012 9.23489 12.9396 9.23489C11.7506 9.23489 9.94656 7.96457 8.00589 8.00307C5.50488 8.04156 3.16787 9.4017 1.89687 11.5061C-0.740804 15.8046 1.2272 22.1177 3.75554 25.595C5.02655 27.3016 6.50255 29.2006 8.44322 29.1236C10.3429 29.0467 11.0536 27.9945 13.3359 27.9945C15.6046 27.9945 16.2606 29.1236 18.2423 29.0851C20.2786 29.0595 21.5633 27.3786 22.7796 25.6592C24.2419 23.7088 24.8296 21.7841 24.8569 21.6942C24.7886 21.6814 20.8936 20.2828 20.8526 16.0484Z" fill="white"/>
<path d="M17.1218 5.66772C18.1468 4.47439 18.8438 2.84478 18.6388 1.18951C17.1628 1.25367 15.3178 2.15188 14.2518 3.31955C13.3088 4.34607 12.4751 6.03984 12.6938 7.63095C14.3475 7.74643 16.0558 6.84822 17.1218 5.66772Z" fill="white"/>
<path d="M44.8101 24.825H38.3458L36.7878 29.1364H34.0545L40.1772 13.1997H43.0198L49.1424 29.1364H46.3545L44.8101 24.825ZM39.0155 22.8362H44.1405L41.6121 15.843H41.5438L39.0155 22.8362Z" fill="white"/>
<path d="M62.3853 23.3242C62.3853 26.9298 60.3216 29.2523 57.2194 29.2523C55.4564 29.2523 54.0624 28.5081 53.3244 27.225H53.2697V32.9735H50.7278V17.5115H53.1877V19.4491H53.2287C53.9394 18.2044 55.4427 17.3961 57.1647 17.3961C60.3216 17.3961 62.3853 19.7186 62.3853 23.3242ZM59.775 23.3242C59.775 20.976 58.4767 19.4234 56.5087 19.4234C54.5681 19.4234 53.2561 21.0017 53.2561 23.3242C53.2561 25.6595 54.5681 27.2378 56.5087 27.2378C58.4767 27.2378 59.775 25.698 59.775 23.3242Z" fill="white"/>
<path d="M75.9978 23.3242C75.9978 26.9298 73.9341 29.2523 70.8318 29.2523C69.0688 29.2523 67.6748 28.5081 66.9368 27.225H66.8821V32.9735H64.3538V17.5115H66.8138V19.4491H66.8548C67.5654 18.2044 69.0688 17.3961 70.7908 17.3961C73.9341 17.3961 75.9978 19.7186 75.9978 23.3242ZM73.3874 23.3242C73.3874 20.976 72.0891 19.4234 70.1211 19.4234C68.1804 19.4234 66.8684 21.0017 66.8684 23.3242C66.8684 25.6595 68.1804 27.2378 70.1211 27.2378C72.1028 27.2378 73.3874 25.698 73.3874 23.3242Z" fill="white"/>
<path d="M85.0042 24.6968C85.1955 26.275 86.8218 27.3144 89.0632 27.3144C91.2088 27.3144 92.7395 26.275 92.7395 24.8507C92.7395 23.6189 91.8102 22.8747 89.6098 22.3614L87.4095 21.861C84.2935 21.1553 82.8448 19.7823 82.8448 17.5624C82.8448 14.8165 85.4005 12.9303 89.0222 12.9303C92.6028 12.9303 95.0628 14.8165 95.1448 17.5624H92.5755C92.4252 15.9713 91.0175 15.009 88.9812 15.009C86.9448 15.009 85.5372 15.9842 85.5372 17.3956C85.5372 18.5248 86.4255 19.1792 88.6122 19.6925L90.4845 20.1287C93.9695 20.8986 95.4182 22.2203 95.4182 24.5428C95.4182 27.5197 92.8898 29.3931 88.8718 29.3931C85.1135 29.3931 82.5715 27.571 82.4075 24.6839H85.0042V24.6968Z" fill="white"/>
<path d="M100.911 14.7649V17.5109H103.261V19.3971H100.911V25.8C100.911 26.8008 101.376 27.2628 102.414 27.2628C102.674 27.2628 103.084 27.2243 103.248 27.2114V29.0848C102.961 29.149 102.4 29.2003 101.84 29.2003C99.3392 29.2003 98.3552 28.3149 98.3552 26.0694V19.4099H96.5513V17.5237H98.3552V14.7649H100.911Z" fill="white"/>
<path d="M104.615 23.3235C104.615 19.6666 106.911 17.3697 110.478 17.3697C114.059 17.3697 116.341 19.6666 116.341 23.3235C116.341 26.9933 114.073 29.2773 110.478 29.2773C106.898 29.2773 104.615 26.9933 104.615 23.3235ZM113.772 23.3235C113.772 20.8214 112.542 19.3329 110.492 19.3329C108.442 19.3329 107.212 20.8214 107.212 23.3235C107.212 25.8385 108.428 27.3141 110.492 27.3141C112.556 27.3141 113.772 25.8385 113.772 23.3235Z" fill="white"/>
<path d="M118.459 17.5112H120.878V19.4872H120.933C121.316 18.1784 122.45 17.3829 123.912 17.3829C124.281 17.3829 124.582 17.4342 124.787 17.4727V19.7054C124.582 19.6284 124.145 19.5642 123.653 19.5642C122.013 19.5642 121.001 20.6036 121.001 22.2332V29.1236H118.459V17.5112V17.5112Z" fill="white"/>
<path d="M136.485 25.723C136.143 27.8273 133.957 29.2773 131.155 29.2773C127.561 29.2773 125.319 27.019 125.319 23.3748C125.319 19.7307 127.561 17.3697 131.046 17.3697C134.462 17.3697 136.622 19.5767 136.622 23.1054V23.9266H127.889V24.0677C127.889 26.0566 129.214 27.3526 131.223 27.3526C132.631 27.3526 133.738 26.7238 134.08 25.723H136.485V25.723ZM127.902 22.2457H134.093C134.039 20.4621 132.822 19.2944 131.059 19.2944C129.31 19.3073 128.039 20.5006 127.902 22.2457Z" fill="white"/>
<path d="M38.7008 1.20227C41.1199 1.20227 42.5412 2.60091 42.5412 5.0004C42.5412 7.45122 41.1335 8.84985 38.7008 8.84985H35.7488V1.20227H38.7008ZM37.0198 7.772H38.5505C40.2588 7.772 41.2429 6.77115 41.2429 5.01323C41.2429 3.28098 40.2452 2.28012 38.5505 2.28012H37.0198V7.772Z" fill="white"/>
<path d="M43.9626 5.96292C43.9626 4.10233 45.0696 2.96032 46.86 2.96032C48.6503 2.96032 49.7573 4.0895 49.7573 5.96292C49.7573 7.83633 48.6503 8.96551 46.86 8.96551C45.0696 8.96551 43.9626 7.83633 43.9626 5.96292ZM48.5137 5.96292C48.5137 4.70542 47.9123 3.97402 46.86 3.97402C45.8076 3.97402 45.2063 4.70542 45.2063 5.96292C45.2063 7.22041 45.794 7.95182 46.86 7.95182C47.926 7.95182 48.5137 7.22041 48.5137 5.96292Z" fill="white"/>
<path d="M57.4787 8.86244H56.2214L54.9504 4.60239H54.8547L53.5838 8.86244H52.3401L50.6455 3.08828H51.8754L52.9824 7.5023H53.0781L54.3491 3.08828H55.5107L56.7817 7.5023H56.8774L57.9707 3.08828H59.187L57.4787 8.86244Z" fill="white"/>
<path d="M60.5951 3.07558H61.7705V3.99945H61.8661C62.1668 3.35788 62.7818 2.97293 63.6975 2.97293C65.0642 2.97293 65.8295 3.74282 65.8295 5.1158V8.86261H64.6132V5.41092C64.6132 4.48705 64.1895 4.02512 63.2875 4.02512C62.3855 4.02512 61.8115 4.5897 61.8115 5.48791V8.86261H60.5951V3.07558V3.07558Z" fill="white"/>
<path d="M67.7564 0.830078H68.9728V8.86258H67.7564V0.830078Z" fill="white"/>
<path d="M70.6679 5.96292C70.6679 4.10233 71.7749 2.96032 73.5652 2.96032C75.3555 2.96032 76.4624 4.0895 76.4624 5.96292C76.4624 7.83633 75.3555 8.96551 73.5652 8.96551C71.7612 8.96551 70.6679 7.83633 70.6679 5.96292ZM75.2188 5.96292C75.2188 4.70542 74.6175 3.97402 73.5652 3.97402C72.5129 3.97402 71.9115 4.70542 71.9115 5.96292C71.9115 7.22041 72.4992 7.95182 73.5652 7.95182C74.6175 7.95182 75.2188 7.22041 75.2188 5.96292Z" fill="white"/>
<path d="M77.7468 7.22018C77.7468 6.18083 78.5668 5.57774 80.0291 5.50075L81.6965 5.41093V4.9105C81.6965 4.29458 81.2728 3.96096 80.4391 3.96096C79.7558 3.96096 79.2912 4.19193 79.1545 4.60254H77.9792C78.1022 3.61451 79.0998 2.97293 80.4938 2.97293C82.0381 2.97293 82.9128 3.6915 82.9128 4.9105V8.86263H81.7375V8.05424H81.6418C81.2728 8.63166 80.6031 8.96528 79.7968 8.96528C78.6078 8.95245 77.7468 8.28521 77.7468 7.22018ZM81.7101 6.73258V6.24498L80.2068 6.3348C79.3595 6.38613 78.9768 6.6556 78.9768 7.16886C78.9768 7.69495 79.4552 7.99008 80.1111 7.99008C81.0268 7.99008 81.7101 7.45115 81.7101 6.73258Z" fill="white"/>
<path d="M84.5112 5.96268C84.5112 4.14061 85.5089 2.98577 87.0669 2.98577C87.9142 2.98577 88.6249 3.35789 88.9529 3.99946H89.0486V0.830078H90.2649V8.86261H89.0896V7.95157H88.9939C88.6249 8.58031 87.9142 8.96526 87.0669 8.96526C85.4952 8.95243 84.5112 7.79759 84.5112 5.96268ZM85.7686 5.96268C85.7686 7.19451 86.3836 7.92591 87.4086 7.92591C88.4336 7.92591 89.0622 7.18168 89.0622 5.96268C89.0622 4.75652 88.4199 3.99946 87.4086 3.99946C86.3836 4.01229 85.7686 4.75652 85.7686 5.96268Z" fill="white"/>
<path d="M95.2806 5.96292C95.2806 4.10233 96.3876 2.96032 98.1779 2.96032C99.9682 2.96032 101.075 4.0895 101.075 5.96292C101.075 7.83633 99.9682 8.96551 98.1779 8.96551C96.3876 8.96551 95.2806 7.83633 95.2806 5.96292ZM99.8316 5.96292C99.8316 4.70542 99.2302 3.97402 98.1779 3.97402C97.1256 3.97402 96.5242 4.70542 96.5242 5.96292C96.5242 7.22041 97.1119 7.95182 98.1779 7.95182C99.2302 7.95182 99.8316 7.22041 99.8316 5.96292Z" fill="white"/>
<path d="M102.716 3.07558H103.891V3.99945H103.987C104.287 3.35788 104.902 2.97293 105.818 2.97293C107.185 2.97293 107.95 3.74282 107.95 5.1158V8.86261H106.734V5.41092C106.734 4.48705 106.31 4.02512 105.408 4.02512C104.506 4.02512 103.932 4.5897 103.932 5.48791V8.86261H102.716V3.07558Z" fill="white"/>
<path d="M114.81 1.63826V3.10104H116.149V4.0634H114.81V7.04028C114.81 7.64336 115.07 7.91282 115.685 7.91282C115.876 7.91282 115.972 7.89998 116.149 7.88715V8.83668C115.958 8.86234 115.726 8.90083 115.493 8.90083C114.14 8.90083 113.607 8.45173 113.607 7.3354V4.07623H112.637V3.11387H113.607V1.63826H114.81Z" fill="white"/>
<path d="M117.79 0.830078H118.992V4.01229H119.088C119.389 3.37071 120.031 2.97294 120.96 2.97294C122.272 2.97294 123.079 3.75566 123.079 5.12862V8.86258H121.862V5.41092C121.862 4.48705 121.411 4.02512 120.55 4.02512C119.553 4.02512 119.006 4.61536 119.006 5.48791V8.86258H117.79V0.830078Z" fill="white"/>
<path d="M130.171 7.29717C129.898 8.33653 128.914 8.96528 127.506 8.96528C125.743 8.96528 124.664 7.8361 124.664 5.98835C124.664 4.14061 125.771 2.97293 127.506 2.97293C129.215 2.97293 130.253 4.07645 130.253 5.8857V6.28348H125.907V6.34764C125.948 7.36133 126.577 8.00291 127.547 8.00291C128.285 8.00291 128.791 7.75911 129.01 7.29717H130.171ZM125.907 5.43659H129.01C128.982 4.52555 128.395 3.9353 127.493 3.9353C126.591 3.9353 125.976 4.53838 125.907 5.43659Z" fill="white"/>
</svg>
