<svg width="159" height="36" viewBox="0 0 159 36"  xmlns="http://www.w3.org/2000/svg">
<path d="M51.1809 5.32452C51.1809 6.40237 50.8392 7.26207 50.1559 7.89082C49.3906 8.64787 48.3792 9.03282 47.1492 9.03282C45.9603 9.03282 44.9626 8.64787 44.1289 7.87799C43.2953 7.1081 42.8853 6.14574 42.8853 5.01657C42.8853 3.87456 43.2953 2.92503 44.1289 2.15515C44.9626 1.38526 45.9603 1.00031 47.1492 1.00031C47.7369 1.00031 48.2972 1.10296 48.8302 1.3211C49.3632 1.53923 49.7869 1.82153 50.1149 2.18081L49.3906 2.86088C48.8439 2.2578 48.1059 1.94984 47.1492 1.94984C46.2883 1.94984 45.5366 2.23213 44.9079 2.80955C44.2793 3.37414 43.9649 4.11836 43.9649 5.0294C43.9649 5.94043 44.2793 6.68466 44.9079 7.24924C45.5366 7.81383 46.2883 8.10895 47.1492 8.10895C48.0649 8.10895 48.8302 7.82666 49.4452 7.24924C49.8416 6.87713 50.0739 6.35104 50.1286 5.6838H47.1492V4.7471H51.1262C51.1536 4.95241 51.1809 5.14488 51.1809 5.32452Z" fill="white" stroke="white" stroke-width="0.256629" stroke-miterlimit="10"/>
<path d="M57.481 2.1168H53.7499V4.55478H57.112V5.47864H53.7499V7.91662H57.481V8.86615H52.6976V1.16727H57.481V2.1168V2.1168Z" fill="white" stroke="white" stroke-width="0.256629" stroke-miterlimit="10"/>
<path d="M61.9224 8.86615H60.8701V2.1168H58.5741V1.16727H64.2047V2.1168H61.9087V8.86615H61.9224Z" fill="white" stroke="white" stroke-width="0.256629" stroke-miterlimit="10"/>
<path d="M68.2908 8.86615V1.16727H69.3431V8.86615H68.2908Z" fill="white" stroke="white" stroke-width="0.256629" stroke-miterlimit="10"/>
<path d="M74.0181 8.86615H72.9657V2.1168H70.6697V1.16727H76.3004V2.1168H74.0044V8.86615H74.0181Z" fill="white" stroke="white" stroke-width="0.256629" stroke-miterlimit="10"/>
<path d="M86.9733 7.86484C86.167 8.64756 85.1694 9.03251 83.9667 9.03251C82.7641 9.03251 81.7664 8.64756 80.9601 7.86484C80.1537 7.08212 79.7574 6.13259 79.7574 5.01625C79.7574 3.89991 80.1537 2.93755 80.9601 2.16767C81.7664 1.38494 82.7641 1 83.9667 1C85.1557 1 86.1533 1.38494 86.9733 2.16767C87.7797 2.95039 88.1897 3.89991 88.1897 5.01625C88.176 6.14542 87.7797 7.09495 86.9733 7.86484ZM81.7391 7.22327C82.3404 7.80068 83.092 8.08298 83.9667 8.08298C84.8414 8.08298 85.593 7.80068 86.1943 7.22327C86.7957 6.64585 87.11 5.91446 87.11 5.01625C87.11 4.11805 86.8093 3.38665 86.1943 2.80924C85.593 2.23182 84.8414 1.9367 83.9667 1.9367C83.092 1.9367 82.3404 2.21899 81.7391 2.79641C81.1377 3.38666 80.8234 4.11805 80.8234 5.01625C80.8234 5.91446 81.1377 6.64585 81.7391 7.22327Z" fill="white" stroke="white" stroke-width="0.256629" stroke-miterlimit="10"/>
<path d="M89.6663 8.86615V1.16727H90.9509L94.9415 7.15957H94.9825L94.9415 5.67112V1.16727H95.9938V8.86615H94.9005L90.7323 2.59157H90.6913L90.7323 4.08002V8.86615H89.6663Z" fill="white" stroke="white" stroke-width="0.256629" stroke-miterlimit="10"/>
<path d="M79.4982 20.0929C76.2866 20.0929 73.6626 22.3898 73.6626 25.5463C73.6626 28.69 76.2866 30.9997 79.4982 30.9997C82.7099 30.9997 85.3339 28.69 85.3339 25.5463C85.3339 22.3898 82.7099 20.0929 79.4982 20.0929ZM79.4982 28.8568C77.7352 28.8568 76.2182 27.4967 76.2182 25.5463C76.2182 23.5831 77.7352 22.2358 79.4982 22.2358C81.2612 22.2358 82.7782 23.5831 82.7782 25.5463C82.7782 27.4967 81.2475 28.8568 79.4982 28.8568ZM66.7609 20.0929C63.5493 20.0929 60.9253 22.3898 60.9253 25.5463C60.9253 28.69 63.5493 30.9997 66.7609 30.9997C69.9726 30.9997 72.5966 28.69 72.5966 25.5463C72.5966 22.3898 69.9726 20.0929 66.7609 20.0929ZM66.7609 28.8568C64.9979 28.8568 63.4809 27.4967 63.4809 25.5463C63.4809 23.5831 64.9979 22.2358 66.7609 22.2358C68.5239 22.2358 70.0409 23.5831 70.0409 25.5463C70.0409 27.4967 68.5239 28.8568 66.7609 28.8568ZM51.6183 21.7738V24.0835H57.5223C57.3446 25.3795 56.88 26.3418 56.183 26.9963C55.322 27.8046 53.9826 28.69 51.632 28.69C47.9967 28.69 45.154 25.9441 45.154 22.5309C45.154 19.1177 47.9967 16.3718 51.632 16.3718C53.5863 16.3718 55.0213 17.0903 56.0736 18.027L57.8093 16.3975C56.3333 15.0758 54.379 14.0621 51.6183 14.0621C46.6437 14.0621 42.4617 17.8602 42.4617 22.5437C42.4617 27.2144 46.6437 31.0253 51.6183 31.0253C54.3106 31.0253 56.3333 30.2041 57.9186 28.6515C59.5449 27.1246 60.0506 24.9689 60.0506 23.2366C60.0506 22.6977 60.0096 22.1973 59.9139 21.7867H51.6183V21.7738ZM113.542 23.5702C113.063 22.3513 111.587 20.0929 108.567 20.0929C105.574 20.0929 103.087 22.2999 103.087 25.5463C103.087 28.6002 105.547 30.9997 108.854 30.9997C111.519 30.9997 113.063 29.4727 113.692 28.5874L111.71 27.3427C111.054 28.2537 110.152 28.8568 108.854 28.8568C107.556 28.8568 106.626 28.2922 106.039 27.2016L113.815 24.1862L113.542 23.5702ZM105.615 25.3923C105.547 23.288 107.351 22.2101 108.649 22.2101C109.66 22.2101 110.521 22.6849 110.808 23.3649L105.615 25.3923ZM99.3012 30.6789H101.857V14.6395H99.3012V30.6789ZM95.1192 21.3119H95.0235C94.4495 20.6703 93.3562 20.0929 91.9622 20.0929C89.0512 20.0929 86.3862 22.4924 86.3862 25.572C86.3862 28.6259 89.0512 31.0125 91.9622 31.0125C93.3425 31.0125 94.4495 30.4351 95.0235 29.7679H95.1055V30.5506C95.1055 32.6421 93.9165 33.7584 92.0032 33.7584C90.4452 33.7584 89.4749 32.7063 89.0785 31.8209L86.8509 32.6934C87.4932 34.1434 89.1879 35.9141 92.0032 35.9141C94.9962 35.9141 97.5245 34.2589 97.5245 30.2298V20.4265H95.1055V21.3119H95.1192ZM92.1808 28.8568C90.4178 28.8568 88.9419 27.471 88.9419 25.572C88.9419 23.6472 90.4178 22.2486 92.1808 22.2486C93.9165 22.2486 95.2832 23.6601 95.2832 25.572C95.2968 27.471 93.9302 28.8568 92.1808 28.8568ZM125.514 14.6395H119.405V30.6789H121.96V24.5968H125.527C128.356 24.5968 131.131 22.672 131.131 19.6181C131.131 16.5643 128.329 14.6395 125.514 14.6395ZM125.568 22.3641H121.947V16.8594H125.568C127.482 16.8594 128.561 18.3478 128.561 19.6053C128.561 20.8628 127.482 22.3641 125.568 22.3641ZM141.34 20.0673C139.495 20.0673 137.581 20.8371 136.789 22.5181L139.057 23.4034C139.536 22.5181 140.438 22.2229 141.381 22.2229C142.706 22.2229 144.046 22.9672 144.059 24.2888V24.4556C143.595 24.2118 142.611 23.8397 141.394 23.8397C138.948 23.8397 136.474 25.0972 136.474 27.4454C136.474 29.5882 138.47 30.974 140.711 30.974C142.419 30.974 143.376 30.2554 143.964 29.4086H144.046V30.6532H146.506V24.5069C146.519 21.6584 144.251 20.0673 141.34 20.0673ZM141.025 28.8568C140.192 28.8568 139.03 28.459 139.03 27.4967C139.03 26.2649 140.479 25.7901 141.736 25.7901C142.857 25.7901 143.39 26.0211 144.059 26.329C143.868 27.8046 142.501 28.8568 141.025 28.8568ZM155.485 20.4137L152.56 27.3684H152.478L149.444 20.4137H146.697L151.248 30.14L148.651 35.542H151.316L158.327 20.4137H155.485ZM132.525 30.6789H135.08V14.6395H132.525V30.6789Z" fill="white"/>
<path d="M0.641668 1.85925C0.245334 2.25703 0.0130005 2.87294 0.0130005 3.65566V32.0389C0.0130005 32.8345 0.245334 33.4504 0.641668 33.8353L0.737336 33.9251L17.6704 18.0398V17.8473V17.6548L0.737336 1.76943L0.641668 1.85925Z" fill="url(#paint0_linear_303_114)"/>
<path d="M23.3165 23.3392L17.6721 18.0397V17.8473V17.6548L23.3165 12.3554L23.4395 12.4195L30.1225 15.9867C32.0359 17.0004 32.0359 18.6685 30.1225 19.695L23.4395 23.2622L23.3165 23.3392Z" fill="url(#paint1_linear_303_114)"/>
<path d="M23.4387 23.2751L17.6714 17.8474L0.642776 33.8354C1.27144 34.4642 2.3101 34.5412 3.48543 33.9124L23.4387 23.2751Z" fill="url(#paint2_linear_303_114)"/>
<path d="M23.4382 12.4325L3.47134 1.78236C2.29601 1.15362 1.25736 1.23061 0.628693 1.85935L17.6709 17.8474L23.4382 12.4325Z" fill="url(#paint3_linear_303_114)"/>
<path opacity="0.2" d="M23.3145 23.147L3.47057 33.7329C2.36358 34.3232 1.36592 34.2847 0.737253 33.7458L0.641586 33.8356L0.737253 33.9254C1.37958 34.4643 2.36358 34.5028 3.47057 33.9126L23.4375 23.2625L23.3145 23.147Z" fill="black"/>
<path opacity="0.12" d="M0.640562 33.6557C0.244175 33.258 0.0118103 32.642 0.0118103 31.8593V32.0518C0.0118103 32.8474 0.244175 33.4633 0.640562 33.8482L0.736243 33.7584L0.640562 33.6557Z" fill="black"/>
<path opacity="0.12" d="M30.122 19.5155L23.3023 23.1468L23.4253 23.2622L30.1083 19.6951C31.065 19.1819 31.5433 18.5146 31.5433 17.8474C31.475 18.4505 30.9966 19.0536 30.122 19.5155Z" fill="black"/>
<path opacity="0.25" d="M3.47134 1.963L30.1214 16.1803C30.9824 16.6422 31.4744 17.2324 31.5564 17.8484C31.5564 17.1811 31.0781 16.501 30.1214 16.0006L3.47134 1.78336C1.558 0.769676 0 1.61655 0 3.66959V3.86206C0 1.79619 1.57167 0.949316 3.47134 1.963Z" fill="white"/>
<defs>
<linearGradient id="paint0_linear_303_114" x1="16.1665" y1="3.36028" x2="-5.3251" y2="26.2507" gradientUnits="userSpaceOnUse">
<stop stop-color="#00A0FF"/>
<stop offset="0.00657445" stop-color="#00A1FF"/>
<stop offset="0.2601" stop-color="#00BEFF"/>
<stop offset="0.5122" stop-color="#00D2FF"/>
<stop offset="0.7604" stop-color="#00DFFF"/>
<stop offset="1" stop-color="#00E3FF"/>
</linearGradient>
<linearGradient id="paint1_linear_303_114" x1="32.6158" y1="17.8492" x2="-0.453601" y2="17.8492" gradientUnits="userSpaceOnUse">
<stop stop-color="#FFE000"/>
<stop offset="0.4087" stop-color="#FFBD00"/>
<stop offset="0.7754" stop-color="#FFA500"/>
<stop offset="1" stop-color="#FF9C00"/>
</linearGradient>
<linearGradient id="paint2_linear_303_114" x1="20.3048" y1="20.7938" x2="-8.83952" y2="51.8349" gradientUnits="userSpaceOnUse">
<stop stop-color="#FF3A44"/>
<stop offset="1" stop-color="#C31162"/>
</linearGradient>
<linearGradient id="paint3_linear_303_114" x1="-3.65277" y1="-7.58936" x2="9.36147" y2="6.27174" gradientUnits="userSpaceOnUse">
<stop stop-color="#32A071"/>
<stop offset="0.0685" stop-color="#2DA771"/>
<stop offset="0.4762" stop-color="#15CF74"/>
<stop offset="0.8009" stop-color="#06E775"/>
<stop offset="1" stop-color="#00F076"/>
</linearGradient>
</defs>
</svg>
