<svg width="81" height="70" viewBox="0 0 81 70" fill="none" xmlns="http://www.w3.org/2000/svg">
<path d="M0.132183 4.08355C-0.0458939 3.8725 -0.0191615 3.55704 0.191891 3.37897L3.6312 0.477039C3.84225 0.298962 4.1577 0.325695 4.33578 0.536748C4.51385 0.7478 4.48712 1.06325 4.27607 1.24133L1.21891 3.82082L3.7984 6.87798C3.97648 7.08903 3.94974 7.40448 3.73869 7.58256C3.52764 7.76064 3.21219 7.73391 3.03411 7.52285L0.132183 4.08355ZM79.0196 69.3236C77.5304 58.6552 72.564 43.633 60.6464 30.6611C48.7381 17.6993 29.8581 6.74959 0.472107 4.25933L0.556548 3.2629C30.1708 5.77251 49.2909 16.8229 61.3828 29.9845C73.4653 43.136 78.499 58.3606 80.01 69.1854L79.0196 69.3236Z" fill="white"/>
</svg>
