<svg width="194" height="118" viewBox="0 0 194 118" fill="none" xmlns="http://www.w3.org/2000/svg">
<rect width="193.846" height="117.605" rx="14.7953" fill="black"/>
<rect x="0.308235" y="0.308235" width="193.229" height="116.989" rx="14.4871" stroke="white" stroke-opacity="0.5" stroke-width="0.616471"/>
<path d="M27.917 27.5764H24.981V83.7269H27.917V27.5764Z" fill="#406EB2"/>
<path d="M34.4219 27.5764H31.4858V83.7269H34.4219V27.5764Z" fill="#406EB2"/>
<path d="M47.4233 27.5764H44.4872V83.7269H47.4233V27.5764Z" fill="#406EB2"/>
<path d="M53.92 27.5764H50.9839V83.7269H53.92V27.5764Z" fill="#406EB2"/>
<path d="M66.9214 27.5764H63.9853V83.7269H66.9214V27.5764Z" fill="#406EB2"/>
<path d="M73.4262 27.5764H70.4901V83.7269H73.4262V27.5764Z" fill="#406EB2"/>
<path d="M86.4277 27.5764H83.4916V83.7269H86.4277V27.5764Z" fill="#406EB2"/>
<path d="M92.9244 27.5764H89.9883V83.7269H92.9244V27.5764Z" fill="#406EB2"/>
<path d="M105.926 27.5764H102.99V83.7269H105.926V27.5764Z" fill="#406EB2"/>
<path d="M112.423 27.5764H109.486V83.7269H112.423V27.5764Z" fill="#406EB2"/>
<path d="M125.424 27.5764H122.488V83.7269H125.424V27.5764Z" fill="#406EB2"/>
<path d="M131.929 27.5764H128.993V83.7269H131.929V27.5764Z" fill="#406EB2"/>
<path d="M144.93 27.5764H141.994V83.7269H144.93V27.5764Z" fill="#406EB2"/>
<path d="M151.427 27.5764H148.491V83.7269H151.427V27.5764Z" fill="#406EB2"/>
<path d="M164.428 27.5764H161.492V83.7269H164.428V27.5764Z" fill="#406EB2"/>
<path d="M170.933 27.5764H167.997V83.7269H170.933V27.5764Z" fill="#406EB2"/>
<path d="M27.917 48.7372H24.981V83.7349H27.917V48.7372Z" fill="url(#paint0_linear_318_51)"/>
<path d="M34.4219 62.9066H31.4858V83.7268H34.4219V62.9066Z" fill="url(#paint1_linear_318_51)"/>
<path d="M47.4233 59.0621H44.4872V83.7268H47.4233V59.0621Z" fill="url(#paint2_linear_318_51)"/>
<path d="M53.92 52.3384H50.9839V83.7268H53.92V52.3384Z" fill="url(#paint3_linear_318_51)"/>
<path d="M66.9214 55.7042H63.9853V83.7348H66.9214V55.7042Z" fill="url(#paint4_linear_318_51)"/>
<path d="M73.4262 63.5474H70.4901V83.7268H73.4262V63.5474Z" fill="url(#paint5_linear_318_51)"/>
<path d="M86.4277 61.4711H83.4916V83.735H86.4277V61.4711Z" fill="url(#paint6_linear_318_51)"/>
<path d="M92.9244 54.0984H89.9883V83.7268H92.9244V54.0984Z" fill="url(#paint7_linear_318_51)"/>
<path d="M105.926 46.3364H102.99V83.7349H105.926V46.3364Z" fill="url(#paint8_linear_318_51)"/>
<path d="M112.423 60.3436H109.486V83.7268H112.423V60.3436Z" fill="url(#paint9_linear_318_51)"/>
<path d="M125.424 49.2157H122.488V83.7268H125.424V49.2157Z" fill="url(#paint10_linear_318_51)"/>
<path d="M131.929 67.5541H128.993V83.7268H131.929V67.5541Z" fill="url(#paint11_linear_318_51)"/>
<path d="M144.93 58.8269H141.994V83.7349H144.93V58.8269Z" fill="url(#paint12_linear_318_51)"/>
<path d="M151.427 54.0984H148.491V83.7268H151.427V54.0984Z" fill="url(#paint13_linear_318_51)"/>
<path d="M164.428 47.772H161.492V83.7268H164.428V47.772Z" fill="url(#paint14_linear_318_51)"/>
<path d="M170.933 56.9047H167.997V83.7349H170.933V56.9047Z" fill="url(#paint15_linear_318_51)"/>
<path d="M174.372 84.0921H19.4657V27.5929H20.0578V83.5H174.372V84.0921Z" fill="white"/>
<path d="M24.5068 88.2009V85.7001H25.2128C25.4303 85.7001 25.6227 85.7482 25.7899 85.8443C25.9571 85.9405 26.0859 86.0774 26.1764 86.2549C26.268 86.4323 26.3143 86.6362 26.3155 86.8663V87.0261C26.3155 87.262 26.2697 87.4686 26.1781 87.6461C26.0876 87.8236 25.9577 87.9599 25.7882 88.0549C25.6199 88.15 25.4235 88.1986 25.199 88.2009H24.5068ZM24.8366 85.9715V87.9313H25.1836C25.4378 87.9313 25.6353 87.8522 25.7762 87.6942C25.9181 87.5362 25.9891 87.3112 25.9891 87.0192V86.8732C25.9891 86.5892 25.9222 86.3688 25.7882 86.2119C25.6553 86.0539 25.4664 85.9737 25.2214 85.9715H24.8366ZM28.1585 87.5482H27.1108L26.8754 88.2009H26.5353L27.4903 85.7001H27.7789L28.7356 88.2009H28.3973L28.1585 87.5482ZM27.2104 87.2768H28.0606L27.6346 86.1071L27.2104 87.2768ZM30.5769 85.9715H29.7731V88.2009H29.445V85.9715H28.6429V85.7001H30.5769V85.9715ZM32.1915 87.5482H31.1437L30.9084 88.2009H30.5683L31.5233 85.7001H31.8119L32.7686 88.2009H32.4302L32.1915 87.5482ZM31.2434 87.2768H32.0936L31.6676 86.1071L31.2434 87.2768ZM35.4636 87.1343C35.4636 87.5064 35.4 87.783 35.2729 87.9639C35.1458 88.1448 34.9471 88.2353 34.6769 88.2353C34.4101 88.2353 34.2126 88.1471 34.0843 87.9708C33.9561 87.7933 33.8896 87.5288 33.8851 87.1772V86.753C33.8851 86.3854 33.9486 86.1123 34.0757 85.9337C34.2028 85.755 34.4021 85.6657 34.6735 85.6657C34.9425 85.6657 35.1406 85.7522 35.2678 85.9251C35.3949 86.0968 35.4601 86.3625 35.4636 86.7221V87.1343ZM35.1458 86.6997C35.1458 86.4306 35.108 86.2348 35.0324 86.1123C34.9569 85.9886 34.8372 85.9268 34.6735 85.9268C34.5109 85.9268 34.3923 85.9881 34.3179 86.1106C34.2435 86.2331 34.2051 86.4215 34.2028 86.6757V87.1841C34.2028 87.4543 34.2418 87.6542 34.3196 87.7835C34.3986 87.9118 34.5177 87.9759 34.6769 87.9759C34.8338 87.9759 34.95 87.9152 35.0256 87.7939C35.1023 87.6725 35.1424 87.4812 35.1458 87.2202V86.6997ZM36.915 88.2009H36.5955V86.0831L35.9548 86.3184V86.0298L36.8651 85.688H36.915V88.2009Z" fill="#F5F7F6"/>
<path d="M43.2486 88.2009V85.7001H43.9545C44.1721 85.7001 44.3644 85.7482 44.5316 85.8443C44.6988 85.9405 44.8276 86.0774 44.9181 86.2549C45.0097 86.4323 45.0561 86.6362 45.0572 86.8663V87.0261C45.0572 87.262 45.0114 87.4686 44.9198 87.6461C44.8293 87.8236 44.6994 87.9599 44.5299 88.0549C44.3616 88.15 44.1652 88.1986 43.9408 88.2009H43.2486ZM43.5783 85.9715V87.9313H43.9253C44.1795 87.9313 44.377 87.8522 44.5179 87.6942C44.6599 87.5362 44.7309 87.3112 44.7309 87.0192V86.8732C44.7309 86.5892 44.6639 86.3688 44.5299 86.2119C44.3971 86.0539 44.2081 85.9737 43.9631 85.9715H43.5783ZM46.9002 87.5482H45.8525L45.6172 88.2009H45.2771L46.2321 85.7001H46.5206L47.4774 88.2009H47.139L46.9002 87.5482ZM45.9521 87.2768H46.8023L46.3764 86.1071L45.9521 87.2768ZM49.3186 85.9715H48.5148V88.2009H48.1867V85.9715H47.3846V85.7001H49.3186V85.9715ZM50.9332 87.5482H49.8855L49.6501 88.2009H49.3101L50.2651 85.7001H50.5536L51.5103 88.2009H51.172L50.9332 87.5482ZM49.9851 87.2768H50.8353L50.4093 86.1071L49.9851 87.2768ZM54.2053 87.1343C54.2053 87.5064 54.1417 87.783 54.0146 87.9639C53.8875 88.1448 53.6889 88.2353 53.4186 88.2353C53.1518 88.2353 52.9543 88.1471 52.826 87.9708C52.6978 87.7933 52.6314 87.5288 52.6268 87.1772V86.753C52.6268 86.3854 52.6903 86.1123 52.8174 85.9337C52.9446 85.755 53.1438 85.6657 53.4152 85.6657C53.6843 85.6657 53.8824 85.7522 54.0095 85.9251C54.1366 86.0968 54.2019 86.3625 54.2053 86.7221V87.1343ZM53.8875 86.6997C53.8875 86.4306 53.8497 86.2348 53.7742 86.1123C53.6986 85.9886 53.5789 85.9268 53.4152 85.9268C53.2526 85.9268 53.1341 85.9881 53.0596 86.1106C52.9852 86.2331 52.9468 86.4215 52.9446 86.6757V87.1841C52.9446 87.4543 52.9835 87.6542 53.0614 87.7835C53.1404 87.9118 53.2595 87.9759 53.4186 87.9759C53.5755 87.9759 53.6917 87.9152 53.7673 87.7939C53.844 87.6725 53.8841 87.4812 53.8875 87.2202V86.6997ZM56.251 88.2009H54.6124V87.9725L55.4781 87.0106C55.6063 86.8652 55.6945 86.7472 55.7426 86.6568C55.7918 86.5652 55.8164 86.4707 55.8164 86.3734C55.8164 86.2428 55.7769 86.1358 55.6979 86.0522C55.6189 85.9686 55.5135 85.9268 55.3819 85.9268C55.2238 85.9268 55.1007 85.972 55.0126 86.0625C54.9255 86.1518 54.882 86.2766 54.882 86.4369H54.5643C54.5643 86.2068 54.6381 86.0207 54.7858 85.8787C54.9347 85.7367 55.1334 85.6657 55.3819 85.6657C55.6143 85.6657 55.7981 85.727 55.9332 85.8495C56.0683 85.9709 56.1359 86.1329 56.1359 86.3356C56.1359 86.5818 55.979 86.8749 55.6653 87.215L54.9954 87.9416H56.251V88.2009Z" fill="#F5F7F6"/>
<path d="M62.0925 88.2009V85.7001H62.7984C63.016 85.7001 63.2084 85.7482 63.3756 85.8443C63.5427 85.9405 63.6716 86.0774 63.762 86.2549C63.8536 86.4323 63.9 86.6362 63.9012 86.8663V87.0261C63.9012 87.262 63.8553 87.4686 63.7637 87.6461C63.6733 87.8236 63.5433 87.9599 63.3738 88.0549C63.2055 88.15 63.0091 88.1986 62.7847 88.2009H62.0925ZM62.4223 85.9715V87.9313H62.7692C63.0234 87.9313 63.221 87.8522 63.3618 87.6942C63.5038 87.5362 63.5748 87.3112 63.5748 87.0192V86.8732C63.5748 86.5892 63.5078 86.3688 63.3738 86.2119C63.241 86.0539 63.0521 85.9737 62.807 85.9715H62.4223ZM65.7442 87.5482H64.6964L64.4611 88.2009H64.121L65.076 85.7001H65.3646L66.3213 88.2009H65.9829L65.7442 87.5482ZM64.796 87.2768H65.6463L65.2203 86.1071L64.796 87.2768ZM68.1626 85.9715H67.3587V88.2009H67.0307V85.9715H66.2285V85.7001H68.1626V85.9715ZM69.7771 87.5482H68.7294L68.4941 88.2009H68.154L69.109 85.7001H69.3976L70.3543 88.2009H70.0159L69.7771 87.5482ZM68.829 87.2768H69.6792L69.2533 86.1071L68.829 87.2768ZM73.0492 87.1343C73.0492 87.5064 72.9857 87.783 72.8586 87.9639C72.7315 88.1448 72.5328 88.2353 72.2626 88.2353C71.9957 88.2353 71.7982 88.1471 71.67 87.9708C71.5417 87.7933 71.4753 87.5288 71.4707 87.1772V86.753C71.4707 86.3854 71.5343 86.1123 71.6614 85.9337C71.7885 85.755 71.9877 85.6657 72.2591 85.6657C72.5282 85.6657 72.7263 85.7522 72.8534 85.9251C72.9805 86.0968 73.0458 86.3625 73.0492 86.7221V87.1343ZM72.7315 86.6997C72.7315 86.4306 72.6937 86.2348 72.6181 86.1123C72.5425 85.9886 72.4229 85.9268 72.2591 85.9268C72.0965 85.9268 71.978 85.9881 71.9036 86.1106C71.8291 86.2331 71.7908 86.4215 71.7885 86.6757V87.1841C71.7885 87.4543 71.8274 87.6542 71.9053 87.7835C71.9843 87.9118 72.1034 87.9759 72.2626 87.9759C72.4194 87.9759 72.5357 87.9152 72.6112 87.7939C72.6879 87.6725 72.728 87.4812 72.7315 87.2202V86.6997ZM73.9183 86.7959H74.1571C74.3071 86.7936 74.425 86.7541 74.5109 86.6774C74.5968 86.6007 74.6397 86.497 74.6397 86.3665C74.6397 86.0734 74.4937 85.9268 74.2018 85.9268C74.0643 85.9268 73.9544 85.9663 73.872 86.0453C73.7907 86.1232 73.75 86.2268 73.75 86.3562H73.4323C73.4323 86.1581 73.5044 85.9938 73.6487 85.8632C73.7941 85.7316 73.9785 85.6657 74.2018 85.6657C74.4376 85.6657 74.6226 85.7281 74.7565 85.8529C74.8905 85.9777 74.9575 86.1512 74.9575 86.3734C74.9575 86.4822 74.922 86.5875 74.851 86.6894C74.7812 86.7913 74.6855 86.8675 74.5642 86.9179C74.7016 86.9614 74.8075 87.0335 74.8819 87.1343C74.9575 87.235 74.9953 87.3581 74.9953 87.5036C74.9953 87.728 74.922 87.9061 74.7754 88.0378C74.6289 88.1694 74.4382 88.2353 74.2035 88.2353C73.9687 88.2353 73.7775 88.1717 73.6298 88.0446C73.4832 87.9175 73.4099 87.7498 73.4099 87.5414H73.7294C73.7294 87.673 73.7723 87.7784 73.8582 87.8574C73.9441 87.9364 74.0592 87.9759 74.2035 87.9759C74.3569 87.9759 74.4743 87.9358 74.5556 87.8557C74.6369 87.7755 74.6775 87.6604 74.6775 87.5104C74.6775 87.365 74.6329 87.2534 74.5436 87.1755C74.4542 87.0976 74.3254 87.0576 74.1571 87.0553H73.9183V86.7959Z" fill="#F5F7F6"/>
<path d="M81.8639 88.2009V85.7001H82.5699C82.7875 85.7001 82.9798 85.7482 83.147 85.8443C83.3142 85.9405 83.443 86.0774 83.5335 86.2549C83.6251 86.4323 83.6715 86.6362 83.6726 86.8663V87.0261C83.6726 87.262 83.6268 87.4686 83.5352 87.6461C83.4447 87.8236 83.3148 87.9599 83.1453 88.0549C82.977 88.15 82.7806 88.1986 82.5562 88.2009H81.8639ZM82.1937 85.9715V87.9313H82.5407C82.7949 87.9313 82.9924 87.8522 83.1333 87.6942C83.2753 87.5362 83.3463 87.3112 83.3463 87.0192V86.8732C83.3463 86.5892 83.2793 86.3688 83.1453 86.2119C83.0125 86.0539 82.8235 85.9737 82.5785 85.9715H82.1937ZM85.5156 87.5482H84.4679L84.2326 88.2009H83.8925L84.8475 85.7001H85.136L86.0927 88.2009H85.7544L85.5156 87.5482ZM84.5675 87.2768H85.4177L84.9917 86.1071L84.5675 87.2768ZM87.934 85.9715H87.1302V88.2009H86.8021V85.9715H86V85.7001H87.934V85.9715ZM89.5486 87.5482H88.5009L88.2655 88.2009H87.9254L88.8804 85.7001H89.169L90.1257 88.2009H89.7874L89.5486 87.5482ZM88.6005 87.2768H89.4507L89.0247 86.1071L88.6005 87.2768ZM92.8207 87.1343C92.8207 87.5064 92.7571 87.783 92.63 87.9639C92.5029 88.1448 92.3042 88.2353 92.034 88.2353C91.7672 88.2353 91.5697 88.1471 91.4414 87.9708C91.3132 87.7933 91.2468 87.5288 91.2422 87.1772V86.753C91.2422 86.3854 91.3057 86.1123 91.4328 85.9337C91.5599 85.755 91.7592 85.6657 92.0306 85.6657C92.2997 85.6657 92.4978 85.7522 92.6249 85.9251C92.752 86.0968 92.8172 86.3625 92.8207 86.7221V87.1343ZM92.5029 86.6997C92.5029 86.4306 92.4651 86.2348 92.3896 86.1123C92.314 85.9886 92.1943 85.9268 92.0306 85.9268C91.868 85.9268 91.7495 85.9881 91.675 86.1106C91.6006 86.2331 91.5622 86.4215 91.5599 86.6757V87.1841C91.5599 87.4543 91.5989 87.6542 91.6767 87.7835C91.7557 87.9118 91.8748 87.9759 92.034 87.9759C92.1909 87.9759 92.3071 87.9152 92.3827 87.7939C92.4594 87.6725 92.4995 87.4812 92.5029 87.2202V86.6997ZM94.5692 87.361H94.9162V87.6204H94.5692V88.2009H94.2497V87.6204H93.111V87.4331L94.2308 85.7001H94.5692V87.361ZM93.4717 87.361H94.2497V86.1346L94.212 86.2033L93.4717 87.361Z" fill="#F5F7F6"/>
<path d="M101.395 88.2009V85.7001H102.101C102.319 85.7001 102.511 85.7482 102.678 85.8443C102.846 85.9405 102.974 86.0774 103.065 86.2549C103.157 86.4323 103.203 86.6362 103.204 86.8663V87.0261C103.204 87.262 103.158 87.4686 103.067 87.6461C102.976 87.8236 102.846 87.9599 102.677 88.0549C102.508 88.15 102.312 88.1986 102.088 88.2009H101.395ZM101.725 85.9715V87.9313H102.072C102.326 87.9313 102.524 87.8522 102.665 87.6942C102.807 87.5362 102.878 87.3112 102.878 87.0192V86.8732C102.878 86.5892 102.811 86.3688 102.677 86.2119C102.544 86.0539 102.355 85.9737 102.11 85.9715H101.725ZM105.047 87.5482H103.999L103.764 88.2009H103.424L104.379 85.7001H104.667L105.624 88.2009H105.286L105.047 87.5482ZM104.099 87.2768H104.949L104.523 86.1071L104.099 87.2768ZM107.465 85.9715H106.662V88.2009H106.334V85.9715H105.531V85.7001H107.465V85.9715ZM109.08 87.5482H108.032L107.797 88.2009H107.457L108.412 85.7001H108.7L109.657 88.2009H109.319L109.08 87.5482ZM108.132 87.2768H108.982L108.556 86.1071L108.132 87.2768ZM112.352 87.1343C112.352 87.5064 112.289 87.783 112.161 87.9639C112.034 88.1448 111.836 88.2353 111.565 88.2353C111.299 88.2353 111.101 88.1471 110.973 87.9708C110.845 87.7933 110.778 87.5288 110.774 87.1772V86.753C110.774 86.3854 110.837 86.1123 110.964 85.9337C111.091 85.755 111.291 85.6657 111.562 85.6657C111.831 85.6657 112.029 85.7522 112.156 85.9251C112.283 86.0968 112.349 86.3625 112.352 86.7221V87.1343ZM112.034 86.6997C112.034 86.4306 111.997 86.2348 111.921 86.1123C111.845 85.9886 111.726 85.9268 111.562 85.9268C111.399 85.9268 111.281 85.9881 111.206 86.1106C111.132 86.2331 111.094 86.4215 111.091 86.6757V87.1841C111.091 87.4543 111.13 87.6542 111.208 87.7835C111.287 87.9118 111.406 87.9759 111.565 87.9759C111.722 87.9759 111.839 87.9152 111.914 87.7939C111.991 87.6725 112.031 87.4812 112.034 87.2202V86.6997ZM112.905 86.9471L113.032 85.7001H114.314V85.9938H113.302L113.226 86.6757C113.349 86.6035 113.488 86.5675 113.644 86.5675C113.872 86.5675 114.053 86.643 114.187 86.7942C114.321 86.9442 114.387 87.1475 114.387 87.4039C114.387 87.6616 114.318 87.8648 114.178 88.0137C114.039 88.1614 113.845 88.2353 113.596 88.2353C113.375 88.2353 113.194 88.174 113.055 88.0515C112.915 87.929 112.835 87.7595 112.816 87.5431H113.116C113.136 87.6862 113.187 87.7944 113.269 87.8677C113.352 87.9398 113.461 87.9759 113.596 87.9759C113.743 87.9759 113.859 87.9255 113.943 87.8248C114.027 87.724 114.07 87.5849 114.07 87.4074C114.07 87.2402 114.024 87.1062 113.932 87.0055C113.842 86.9035 113.721 86.8526 113.57 86.8526C113.431 86.8526 113.323 86.8829 113.244 86.9436L113.159 87.0123L112.905 86.9471Z" fill="#F5F7F6"/>
<path d="M120.753 88.2009V85.7001H121.459C121.677 85.7001 121.869 85.7482 122.036 85.8443C122.204 85.9405 122.332 86.0774 122.423 86.2549C122.515 86.4323 122.561 86.6362 122.562 86.8663V87.0261C122.562 87.262 122.516 87.4686 122.425 87.6461C122.334 87.8236 122.204 87.9599 122.035 88.0549C121.866 88.15 121.67 88.1986 121.446 88.2009H120.753ZM121.083 85.9715V87.9313H121.43C121.684 87.9313 121.882 87.8522 122.023 87.6942C122.165 87.5362 122.236 87.3112 122.236 87.0192V86.8732C122.236 86.5892 122.169 86.3688 122.035 86.2119C121.902 86.0539 121.713 85.9737 121.468 85.9715H121.083ZM124.405 87.5482H123.357L123.122 88.2009H122.782L123.737 85.7001H124.025L124.982 88.2009H124.644L124.405 87.5482ZM123.457 87.2768H124.307L123.881 86.1071L123.457 87.2768ZM126.823 85.9715H126.02V88.2009H125.692V85.9715H124.889V85.7001H126.823V85.9715ZM128.438 87.5482H127.39L127.155 88.2009H126.815L127.77 85.7001H128.058L129.015 88.2009H128.677L128.438 87.5482ZM127.49 87.2768H128.34L127.914 86.1071L127.49 87.2768ZM131.71 87.1343C131.71 87.5064 131.647 87.783 131.519 87.9639C131.392 88.1448 131.194 88.2353 130.923 88.2353C130.657 88.2353 130.459 88.1471 130.331 87.9708C130.203 87.7933 130.136 87.5288 130.132 87.1772V86.753C130.132 86.3854 130.195 86.1123 130.322 85.9337C130.449 85.755 130.649 85.6657 130.92 85.6657C131.189 85.6657 131.387 85.7522 131.514 85.9251C131.641 86.0968 131.707 86.3625 131.71 86.7221V87.1343ZM131.392 86.6997C131.392 86.4306 131.355 86.2348 131.279 86.1123C131.203 85.9886 131.084 85.9268 130.92 85.9268C130.757 85.9268 130.639 85.9881 130.564 86.1106C130.49 86.2331 130.452 86.4215 130.449 86.6757V87.1841C130.449 87.4543 130.488 87.6542 130.566 87.7835C130.645 87.9118 130.764 87.9759 130.923 87.9759C131.08 87.9759 131.197 87.9152 131.272 87.7939C131.349 87.6725 131.389 87.4812 131.392 87.2202V86.6997ZM133.364 85.6983V85.968H133.306C133.058 85.9726 132.861 86.0459 132.715 86.1879C132.568 86.3299 132.484 86.5297 132.461 86.7873C132.592 86.6362 132.772 86.5606 133 86.5606C133.218 86.5606 133.391 86.6373 133.52 86.7908C133.651 86.9442 133.716 87.1423 133.716 87.3851C133.716 87.6427 133.646 87.8488 133.505 88.0034C133.365 88.158 133.178 88.2353 132.942 88.2353C132.702 88.2353 132.508 88.1437 132.359 87.9605C132.211 87.7761 132.136 87.5391 132.136 87.2494V87.1274C132.136 86.6671 132.234 86.3155 132.43 86.0728C132.627 85.8289 132.919 85.7041 133.308 85.6983H133.364ZM132.947 86.8251C132.838 86.8251 132.738 86.8577 132.646 86.923C132.555 86.9883 132.491 87.0702 132.456 87.1686V87.2854C132.456 87.4915 132.502 87.6576 132.595 87.7835C132.687 87.9095 132.803 87.9725 132.942 87.9725C133.085 87.9725 133.197 87.9198 133.278 87.8145C133.361 87.7091 133.402 87.5711 133.402 87.4005C133.402 87.2288 133.36 87.0902 133.277 86.9848C133.194 86.8784 133.084 86.8251 132.947 86.8251Z" fill="#F5F7F6"/>
<path d="M140.01 88.2009V85.7001H140.716C140.933 85.7001 141.126 85.7482 141.293 85.8443C141.46 85.9405 141.589 86.0774 141.68 86.2549C141.771 86.4323 141.817 86.6362 141.819 86.8663V87.0261C141.819 87.262 141.773 87.4686 141.681 87.6461C141.591 87.8236 141.461 87.9599 141.291 88.0549C141.123 88.15 140.927 88.1986 140.702 88.2009H140.01ZM140.34 85.9715V87.9313H140.687C140.941 87.9313 141.138 87.8522 141.279 87.6942C141.421 87.5362 141.492 87.3112 141.492 87.0192V86.8732C141.492 86.5892 141.425 86.3688 141.291 86.2119C141.158 86.0539 140.97 85.9737 140.725 85.9715H140.34ZM143.662 87.5482H142.614L142.379 88.2009H142.038L142.993 85.7001H143.282L144.239 88.2009H143.9L143.662 87.5482ZM142.714 87.2768H143.564L143.138 86.1071L142.714 87.2768ZM146.08 85.9715H145.276V88.2009H144.948V85.9715H144.146V85.7001H146.08V85.9715ZM147.695 87.5482H146.647L146.412 88.2009H146.071L147.026 85.7001H147.315L148.272 88.2009H147.933L147.695 87.5482ZM146.746 87.2768H147.597L147.171 86.1071L146.746 87.2768ZM150.967 87.1343C150.967 87.5064 150.903 87.783 150.776 87.9639C150.649 88.1448 150.45 88.2353 150.18 88.2353C149.913 88.2353 149.716 88.1471 149.587 87.9708C149.459 87.7933 149.393 87.5288 149.388 87.1772V86.753C149.388 86.3854 149.452 86.1123 149.579 85.9337C149.706 85.755 149.905 85.6657 150.177 85.6657C150.446 85.6657 150.644 85.7522 150.771 85.9251C150.898 86.0968 150.963 86.3625 150.967 86.7221V87.1343ZM150.649 86.6997C150.649 86.4306 150.611 86.2348 150.536 86.1123C150.46 85.9886 150.34 85.9268 150.177 85.9268C150.014 85.9268 149.895 85.9881 149.821 86.1106C149.747 86.2331 149.708 86.4215 149.706 86.6757V87.1841C149.706 87.4543 149.745 87.6542 149.823 87.7835C149.902 87.9118 150.021 87.9759 150.18 87.9759C150.337 87.9759 150.453 87.9152 150.529 87.7939C150.605 87.6725 150.646 87.4812 150.649 87.2202V86.6997ZM152.988 85.8787L151.953 88.2009H151.619L152.652 85.9611H151.298V85.7001H152.988V85.8787Z" fill="#F5F7F6"/>
<path d="M158.957 88.2009V85.7001H159.663C159.88 85.7001 160.073 85.7482 160.24 85.8443C160.407 85.9405 160.536 86.0774 160.626 86.2549C160.718 86.4323 160.764 86.6362 160.766 86.8663V87.0261C160.766 87.262 160.72 87.4686 160.628 87.6461C160.538 87.8236 160.408 87.9599 160.238 88.0549C160.07 88.15 159.874 88.1986 159.649 88.2009H158.957ZM159.287 85.9715V87.9313H159.634C159.888 87.9313 160.085 87.8522 160.226 87.6942C160.368 87.5362 160.439 87.3112 160.439 87.0192V86.8732C160.439 86.5892 160.372 86.3688 160.238 86.2119C160.105 86.0539 159.917 85.9737 159.671 85.9715H159.287ZM162.609 87.5482H161.561L161.326 88.2009H160.985L161.94 85.7001H162.229L163.186 88.2009H162.847L162.609 87.5482ZM161.66 87.2768H162.511L162.085 86.1071L161.66 87.2768ZM165.027 85.9715H164.223V88.2009H163.895V85.9715H163.093V85.7001H165.027V85.9715ZM166.642 87.5482H165.594L165.359 88.2009H165.018L165.973 85.7001H166.262L167.219 88.2009H166.88L166.642 87.5482ZM165.693 87.2768H166.544L166.118 86.1071L165.693 87.2768ZM169.914 87.1343C169.914 87.5064 169.85 87.783 169.723 87.9639C169.596 88.1448 169.397 88.2353 169.127 88.2353C168.86 88.2353 168.663 88.1471 168.534 87.9708C168.406 87.7933 168.34 87.5288 168.335 87.1772V86.753C168.335 86.3854 168.399 86.1123 168.526 85.9337C168.653 85.755 168.852 85.6657 169.124 85.6657C169.393 85.6657 169.591 85.7522 169.718 85.9251C169.845 86.0968 169.91 86.3625 169.914 86.7221V87.1343ZM169.596 86.6997C169.596 86.4306 169.558 86.2348 169.483 86.1123C169.407 85.9886 169.287 85.9268 169.124 85.9268C168.961 85.9268 168.842 85.9881 168.768 86.1106C168.694 86.2331 168.655 86.4215 168.653 86.6757V87.1841C168.653 87.4543 168.692 87.6542 168.77 87.7835C168.849 87.9118 168.968 87.9759 169.127 87.9759C169.284 87.9759 169.4 87.9152 169.476 87.7939C169.552 87.6725 169.592 87.4812 169.596 87.2202V86.6997ZM171.837 86.3528C171.837 86.4776 171.804 86.5887 171.738 86.686C171.673 86.7833 171.584 86.8595 171.472 86.9144C171.602 86.9705 171.705 87.0524 171.781 87.16C171.857 87.2677 171.896 87.3896 171.896 87.5259C171.896 87.7423 171.823 87.9147 171.676 88.0429C171.531 88.1712 171.339 88.2353 171.101 88.2353C170.86 88.2353 170.667 88.1712 170.522 88.0429C170.377 87.9135 170.305 87.7412 170.305 87.5259C170.305 87.3908 170.342 87.2688 170.415 87.16C170.49 87.0513 170.592 86.9688 170.723 86.9127C170.612 86.8577 170.524 86.7816 170.46 86.6843C170.396 86.5869 170.364 86.4764 170.364 86.3528C170.364 86.1421 170.431 85.9749 170.566 85.8512C170.701 85.7275 170.88 85.6657 171.101 85.6657C171.32 85.6657 171.498 85.7275 171.633 85.8512C171.769 85.9749 171.837 86.1421 171.837 86.3528ZM171.578 87.519C171.578 87.3793 171.533 87.2654 171.444 87.1772C171.356 87.0891 171.24 87.045 171.097 87.045C170.954 87.045 170.839 87.0885 170.752 87.1755C170.666 87.2625 170.623 87.377 170.623 87.519C170.623 87.661 170.665 87.7727 170.748 87.854C170.833 87.9353 170.951 87.9759 171.101 87.9759C171.249 87.9759 171.366 87.9353 171.451 87.854C171.536 87.7715 171.578 87.6599 171.578 87.519ZM171.101 85.9268C170.976 85.9268 170.874 85.9657 170.797 86.0436C170.72 86.1203 170.681 86.2251 170.681 86.3579C170.681 86.485 170.719 86.5881 170.795 86.6671C170.872 86.745 170.973 86.7839 171.101 86.7839C171.228 86.7839 171.329 86.745 171.405 86.6671C171.481 86.5881 171.52 86.485 171.52 86.3579C171.52 86.2308 171.48 86.1272 171.401 86.047C171.322 85.9669 171.222 85.9268 171.101 85.9268Z" fill="#F5F7F6"/>
<defs>
<linearGradient id="paint0_linear_318_51" x1="26.451" y1="97.2672" x2="26.451" y2="37.3918" gradientUnits="userSpaceOnUse">
<stop stop-color="#27B7FF"/>
<stop offset="0.9899" stop-color="#F408AB"/>
</linearGradient>
<linearGradient id="paint1_linear_318_51" x1="32.9516" y1="97.2672" x2="32.9516" y2="37.3918" gradientUnits="userSpaceOnUse">
<stop stop-color="#27B7FF"/>
<stop offset="0.9899" stop-color="#F408AB"/>
</linearGradient>
<linearGradient id="paint2_linear_318_51" x1="45.9527" y1="97.2672" x2="45.9527" y2="37.3919" gradientUnits="userSpaceOnUse">
<stop stop-color="#27B7FF"/>
<stop offset="0.9899" stop-color="#F408AB"/>
</linearGradient>
<linearGradient id="paint3_linear_318_51" x1="52.4533" y1="97.2672" x2="52.4533" y2="37.392" gradientUnits="userSpaceOnUse">
<stop stop-color="#27B7FF"/>
<stop offset="0.9899" stop-color="#F408AB"/>
</linearGradient>
<linearGradient id="paint4_linear_318_51" x1="65.4545" y1="97.2671" x2="65.4545" y2="37.3919" gradientUnits="userSpaceOnUse">
<stop stop-color="#27B7FF"/>
<stop offset="0.9899" stop-color="#F408AB"/>
</linearGradient>
<linearGradient id="paint5_linear_318_51" x1="71.9551" y1="97.2672" x2="71.9551" y2="37.3919" gradientUnits="userSpaceOnUse">
<stop stop-color="#27B7FF"/>
<stop offset="0.9899" stop-color="#F408AB"/>
</linearGradient>
<linearGradient id="paint6_linear_318_51" x1="84.9563" y1="97.2673" x2="84.9563" y2="37.392" gradientUnits="userSpaceOnUse">
<stop stop-color="#27B7FF"/>
<stop offset="0.9899" stop-color="#F408AB"/>
</linearGradient>
<linearGradient id="paint7_linear_318_51" x1="91.4568" y1="97.2672" x2="91.4568" y2="37.3918" gradientUnits="userSpaceOnUse">
<stop stop-color="#27B7FF"/>
<stop offset="0.9899" stop-color="#F408AB"/>
</linearGradient>
<linearGradient id="paint8_linear_318_51" x1="104.458" y1="97.2671" x2="104.458" y2="37.3919" gradientUnits="userSpaceOnUse">
<stop stop-color="#27B7FF"/>
<stop offset="0.9899" stop-color="#F408AB"/>
</linearGradient>
<linearGradient id="paint9_linear_318_51" x1="110.959" y1="97.2672" x2="110.959" y2="37.3919" gradientUnits="userSpaceOnUse">
<stop stop-color="#27B7FF"/>
<stop offset="0.9899" stop-color="#F408AB"/>
</linearGradient>
<linearGradient id="paint10_linear_318_51" x1="123.96" y1="97.2672" x2="123.96" y2="37.3917" gradientUnits="userSpaceOnUse">
<stop stop-color="#27B7FF"/>
<stop offset="0.9899" stop-color="#F408AB"/>
</linearGradient>
<linearGradient id="paint11_linear_318_51" x1="130.46" y1="97.2673" x2="130.46" y2="37.3919" gradientUnits="userSpaceOnUse">
<stop stop-color="#27B7FF"/>
<stop offset="0.9899" stop-color="#F408AB"/>
</linearGradient>
<linearGradient id="paint12_linear_318_51" x1="143.462" y1="97.2672" x2="143.462" y2="37.3919" gradientUnits="userSpaceOnUse">
<stop stop-color="#27B7FF"/>
<stop offset="0.9899" stop-color="#F408AB"/>
</linearGradient>
<linearGradient id="paint13_linear_318_51" x1="149.962" y1="97.2672" x2="149.962" y2="37.3918" gradientUnits="userSpaceOnUse">
<stop stop-color="#27B7FF"/>
<stop offset="0.9899" stop-color="#F408AB"/>
</linearGradient>
<linearGradient id="paint14_linear_318_51" x1="162.963" y1="97.2672" x2="162.963" y2="37.3917" gradientUnits="userSpaceOnUse">
<stop stop-color="#27B7FF"/>
<stop offset="0.9899" stop-color="#F408AB"/>
</linearGradient>
<linearGradient id="paint15_linear_318_51" x1="169.464" y1="97.2672" x2="169.464" y2="37.3918" gradientUnits="userSpaceOnUse">
<stop stop-color="#27B7FF"/>
<stop offset="0.9899" stop-color="#F408AB"/>
</linearGradient>
</defs>
</svg>
