<svg width="183" height="194" viewBox="0 0 183 194" fill="none" xmlns="http://www.w3.org/2000/svg">
<rect width="182.491" height="193.035" rx="14.7953" fill="black"/>
<rect x="0.308235" y="0.308235" width="181.875" height="192.418" rx="14.4871" stroke="white" stroke-opacity="0.5" stroke-width="0.616471"/>
<path d="M107.443 29.1986C100.654 29.1986 94.0842 30.107 87.8228 31.7778C81.3423 33.5054 75.2187 36.0846 69.5412 39.3613C63.7907 42.6867 58.5025 46.734 53.8389 51.3976C49.1752 56.0613 45.128 61.3576 41.7945 67.1081C38.5096 72.7775 35.9386 78.9091 34.211 85.3896C32.5402 91.6511 31.6318 98.2207 31.6318 105.009H40.4481C40.4481 99.0156 41.2511 93.2083 42.7353 87.6687C44.2683 81.9507 46.5474 76.5327 49.451 71.5284C52.3952 66.4511 55.972 61.7793 60.0922 57.6591C64.2125 53.5388 68.8843 49.962 73.9616 47.0178C78.974 44.1142 84.3838 41.8351 90.1019 40.3022C95.6334 38.8179 101.449 38.015 107.443 38.015V29.1986Z" fill="url(#paint0_radial_318_9)"/>
<path d="M90.1019 40.3021C84.3838 41.835 78.9659 44.1141 73.9615 47.0178C68.8842 49.962 64.2125 53.5388 60.0922 57.659C55.972 61.7793 52.3952 66.451 49.451 71.5283C46.5474 76.5408 44.2682 81.9506 42.7353 87.6687C41.2511 93.2002 40.4481 99.0155 40.4481 105.009C40.4481 111.003 41.2511 116.81 42.7353 122.35C44.2682 128.068 46.5474 133.486 49.451 138.49C52.3952 143.568 55.972 148.239 60.0922 152.36L66.3213 146.131C62.7363 142.546 59.638 138.498 57.0832 134.086C54.5607 129.739 52.5817 125.035 51.2516 120.063C49.962 115.261 49.2644 110.208 49.2644 105.009C49.2644 99.8023 49.962 94.7574 51.2516 89.9559C52.5817 84.9921 54.5607 80.2879 57.0832 75.9325C59.638 71.5202 62.7444 67.473 66.3213 63.8881C69.9062 60.3031 73.9534 57.2048 78.3657 54.65C82.713 52.1275 87.4172 50.1485 92.3891 48.8184C97.1906 47.5288 102.244 46.8312 107.443 46.8312V38.0149C101.449 38.0149 95.6415 38.8179 90.1019 40.3021Z" fill="url(#paint1_linear_318_9)"/>
<path d="M59.7597 92.235C60.8871 88.0175 62.566 84.0351 64.7072 80.3366C66.8728 76.5976 69.5088 73.1587 72.5503 70.1171C75.5918 67.0756 79.0307 64.4478 82.7698 62.2741C86.4601 60.1329 90.4506 58.4539 94.6682 57.3266C98.7479 56.2316 103.03 55.6395 107.443 55.6395V46.8313C102.235 46.8313 97.1906 47.5288 92.3891 48.8184C87.4253 50.1486 82.7211 52.1276 78.3657 54.65C73.9534 57.2049 69.9062 60.3113 66.3213 63.8881C62.7363 67.4731 59.638 71.5203 57.0832 75.9325C54.5607 80.2799 52.5817 84.9841 51.2516 89.9559C49.962 94.7575 49.2644 99.8023 49.2644 105.009C49.2644 110.216 49.962 115.261 51.2516 120.063C52.5817 125.027 54.5607 129.731 57.0832 134.086C59.638 138.499 62.7444 142.546 66.3213 146.131C69.9062 149.716 73.9534 152.814 78.3657 155.369C82.713 157.891 87.4172 159.87 92.3891 161.2C97.1987 162.49 102.244 163.188 107.443 163.188V154.379C103.022 154.379 98.7479 153.787 94.6682 152.692C90.4506 151.565 86.4683 149.886 82.7698 147.745C79.0307 145.579 75.5918 142.943 72.5503 139.902C69.5088 136.86 66.8809 133.421 64.7072 129.682C62.566 125.992 60.8871 122.001 59.7597 117.784C58.6647 113.704 58.0727 109.422 58.0727 105.009C58.0727 100.589 58.6647 96.3147 59.7597 92.235Z" fill="url(#paint2_radial_318_9)"/>
<path d="M142.546 125.278C140.761 128.352 138.604 131.174 136.106 133.673C133.608 136.171 130.785 138.336 127.711 140.112C124.678 141.872 121.401 143.251 117.938 144.176C114.588 145.076 111.076 145.563 107.443 145.563C103.817 145.563 100.297 145.076 96.9473 144.176C93.484 143.251 90.2073 141.872 87.1739 140.112C84.0999 138.328 81.2774 136.171 78.7793 133.673C76.2812 131.174 74.1238 128.352 72.3394 125.278C70.5794 122.245 69.2006 118.968 68.2759 115.505C67.3757 112.155 66.889 108.635 66.889 105.009C66.889 101.384 67.3757 97.8638 68.2759 94.514C69.2006 91.0508 70.5794 87.774 72.3394 84.7406C74.1238 81.6667 76.2812 78.8441 78.7793 76.346C81.2774 73.8479 84.0999 71.6905 87.1739 69.9061C90.2073 68.1461 93.484 66.7673 96.9473 65.8427C100.297 64.9424 103.817 64.4557 107.443 64.4557V55.6394C103.022 55.6394 98.7479 56.2315 94.6682 57.3264C90.4506 58.4538 86.4683 60.1327 82.7698 62.274C79.0308 64.4395 75.5918 67.0755 72.5503 70.117C69.5088 73.1585 66.8809 76.5975 64.7072 80.3365C62.566 84.0269 60.8871 88.0174 59.7597 92.2349C58.6648 96.3146 58.0727 100.597 58.0727 105.009C58.0727 109.43 58.6648 113.704 59.7597 117.784C60.8871 122.001 62.566 125.984 64.7072 129.682C66.8728 133.421 69.5088 136.86 72.5503 139.902C75.5918 142.943 79.0308 145.571 82.7698 147.745C86.4602 149.886 90.4506 151.565 94.6682 152.692C98.7479 153.787 103.03 154.379 107.443 154.379C111.863 154.379 116.137 153.787 120.217 152.692C124.435 151.565 128.417 149.886 132.115 147.745C135.854 145.579 139.293 142.943 142.335 139.902C145.376 136.86 148.004 133.421 150.178 129.682L142.546 125.278Z" fill="url(#paint3_linear_318_9)"/>
<path d="M139.18 105.009C139.18 107.848 138.799 110.598 138.093 113.226C137.363 115.934 136.284 118.497 134.914 120.874C133.519 123.283 131.823 125.489 129.877 127.444C127.922 129.398 125.716 131.093 123.307 132.488C120.931 133.867 118.368 134.946 115.659 135.668C113.039 136.373 110.289 136.755 107.443 136.755C104.604 136.755 101.854 136.373 99.2264 135.668C96.5174 134.938 93.9545 133.859 91.578 132.488C89.1691 131.093 86.963 129.398 85.0084 127.452C83.0537 125.505 81.3585 123.283 79.9716 120.882C78.5928 118.506 77.5141 115.943 76.7922 113.234C76.0866 110.614 75.7054 107.864 75.7054 105.017C75.7054 102.179 76.0866 99.4292 76.7922 96.8013C77.5222 94.0923 78.6009 91.5294 79.9716 89.1529C81.3666 86.744 83.0618 84.5379 85.0165 82.5833C86.9711 80.6286 89.1773 78.9334 91.5861 77.5465C93.9626 76.1677 96.5256 75.0889 99.2345 74.3671C101.854 73.6615 104.604 73.2803 107.451 73.2803V64.4558C103.825 64.4558 100.305 64.9425 96.9554 65.8427C93.4922 66.7674 90.2154 68.1462 87.182 69.9062C84.1081 71.6906 81.2855 73.848 78.7874 76.3461C76.2893 78.8442 74.1319 81.6667 72.3475 84.7407C70.5875 87.7741 69.2087 91.0508 68.2841 94.5141C67.3838 97.8638 66.8971 101.376 66.8971 105.009C66.8971 108.635 67.3838 112.155 68.2841 115.505C69.2087 118.968 70.5875 122.245 72.3475 125.278C74.1319 128.352 76.2893 131.175 78.7874 133.673C81.2855 136.171 84.1081 138.328 87.182 140.113C90.2154 141.873 93.4922 143.251 96.9554 144.176C100.305 145.076 103.825 145.563 107.451 145.563C111.076 145.563 114.596 145.076 117.946 144.176C121.409 143.251 124.686 141.873 127.719 140.113C130.793 138.328 133.616 136.171 136.114 133.673C138.612 131.175 140.769 128.352 142.554 125.278C144.314 122.245 145.693 118.968 146.617 115.505C147.518 112.155 148.004 108.643 148.004 105.009H139.18V105.009Z" fill="url(#paint4_radial_318_9)"/>
<path opacity="0.77" d="M145.149 104.434C144.419 101.725 143.341 99.1616 141.97 96.7851C140.575 94.3763 138.88 92.1701 136.933 90.2155C134.978 88.2608 132.772 86.5656 130.363 85.1787C127.987 83.7999 125.424 82.7212 122.715 81.9993C120.095 81.2937 117.346 80.9125 114.499 80.9125C111.66 80.9125 108.911 81.2937 106.283 81.9993C103.574 82.7293 101.011 83.808 98.6343 85.1787C96.2255 86.5738 94.0193 88.2689 92.0647 90.2155C90.11 92.1701 88.4148 94.3763 87.0279 96.7851C85.6491 99.1616 84.5704 101.725 83.8485 104.434C83.1429 107.053 82.7617 109.803 82.7617 112.65C82.7617 115.488 83.1429 118.238 83.8485 120.866C84.5785 123.575 85.6572 126.138 87.0279 128.514C88.423 130.923 90.1181 133.129 92.0647 135.084C94.0112 137.039 96.2336 138.734 98.6343 140.121C101.011 141.499 103.574 142.578 106.283 143.3C108.902 144.006 111.652 144.387 114.499 144.387C117.338 144.387 120.087 144.006 122.715 143.3C125.424 142.57 127.987 141.491 130.363 140.121C132.772 138.726 134.978 137.03 136.933 135.076C138.888 133.121 140.583 130.915 141.97 128.506C143.349 126.13 144.427 123.567 145.149 120.858C145.855 118.238 146.236 115.488 146.236 112.642C146.236 109.811 145.855 107.061 145.149 104.434Z" fill="url(#paint5_radial_318_9)"/>
<path d="M138.093 96.7932C137.363 94.0842 136.284 91.5212 134.914 89.1448C133.518 86.7359 131.823 84.5298 129.877 82.5751C127.922 80.6204 125.716 78.9253 123.307 77.5383C120.931 76.1595 118.368 75.0808 115.659 74.3589C113.039 73.6533 110.289 73.2721 107.443 73.2721C104.604 73.2721 101.854 73.6533 99.2264 74.3589C96.5174 75.0889 93.9544 76.1676 91.578 77.5383C89.1691 78.9334 86.963 80.6285 85.0083 82.5751C83.0537 84.5298 81.3585 86.7359 79.9635 89.1448C78.5846 91.5212 77.5059 94.0842 76.7841 96.7932C76.0784 99.4129 75.6972 102.162 75.6972 105.009C75.6972 107.848 76.0784 110.598 76.7841 113.225C77.514 115.934 78.5928 118.497 79.9635 120.874C81.3585 123.283 83.0536 125.489 85.0002 127.444C86.9468 129.398 89.161 131.093 91.5699 132.48C93.9463 133.859 96.5093 134.938 99.2183 135.66C101.838 136.365 104.588 136.747 107.434 136.747C110.273 136.747 113.023 136.365 115.651 135.66C118.36 134.93 120.923 133.851 123.299 132.48C125.708 131.085 127.914 129.39 129.869 127.435C131.823 125.481 133.518 123.275 134.905 120.866C136.284 118.489 137.363 115.926 138.085 113.217C138.79 110.598 139.172 107.848 139.172 105.001C139.18 102.171 138.799 99.421 138.093 96.7932Z" fill="url(#paint6_linear_318_9)"/>
<path d="M130.931 98.7155C130.372 96.6391 129.544 94.6763 128.49 92.8595C127.419 91.0184 126.122 89.3233 124.629 87.8228C123.129 86.3223 121.442 85.0327 119.592 83.9621C117.776 82.9077 115.813 82.0804 113.736 81.5208C111.725 80.9855 109.616 80.6935 107.443 80.6935C105.269 80.6935 103.16 80.9855 101.149 81.5208C99.0723 82.0804 97.1095 82.9077 95.2927 83.9621C93.4516 85.0327 91.7564 86.3304 90.256 87.8228C88.7555 89.3233 87.4659 91.0103 86.3953 92.8595C85.3409 94.6763 84.5136 96.6391 83.9539 98.7155C83.4186 100.727 83.1266 102.836 83.1266 105.009C83.1266 107.183 83.4186 109.292 83.9539 111.303C84.5136 113.38 85.3409 115.342 86.3953 117.159C87.4659 119 88.7636 120.696 90.256 122.196C91.7564 123.696 93.4435 124.986 95.2927 126.057C97.1095 127.111 99.0723 127.938 101.149 128.498C103.16 129.033 105.269 129.325 107.443 129.325C109.616 129.325 111.725 129.033 113.736 128.498C115.813 127.938 117.776 127.111 119.592 126.057C121.434 124.986 123.129 123.688 124.629 122.196C126.13 120.696 127.419 119.008 128.49 117.159C129.544 115.342 130.372 113.38 130.931 111.303C131.466 109.292 131.758 107.183 131.758 105.009C131.758 102.836 131.466 100.727 130.931 98.7155Z" fill="#F5F7F6"/>
<path d="M130.874 35.8007L134.841 33.5378L130.874 31.2668V33.3107H111.701V33.7568H130.874V35.8007Z" fill="#F5F7F6"/>
<path d="M130.874 42.2001H111.701V42.6461H130.874V44.5846L134.841 42.3136L130.874 40.0426V42.2001Z" fill="#F5F7F6"/>
<path d="M130.874 51.057H111.701V51.495H130.874V53.547L134.841 51.276L130.874 49.005V51.057Z" fill="#F5F7F6"/>
<path d="M130.874 60.4167H111.701V60.8628H130.874V62.6877L134.841 60.4167L130.874 58.1538V60.4167Z" fill="#F5F7F6"/>
<path d="M130.874 69.4521H111.701V69.8982H130.874V71.9502L134.841 69.6792L130.874 67.4082V69.4521Z" fill="#F5F7F6"/>
<path d="M141.276 67.1629L139.667 70.7693H139.15L140.753 67.2909H138.651V66.8855H141.276V67.1629ZM142.062 68.822L142.26 66.8855H144.25V67.3416H142.679L142.561 68.4006C142.752 68.2885 142.968 68.2325 143.209 68.2325C143.563 68.2325 143.844 68.3499 144.052 68.5846C144.26 68.8176 144.364 69.1332 144.364 69.5316C144.364 69.9317 144.256 70.2474 144.039 70.4785C143.824 70.7079 143.522 70.8226 143.135 70.8226C142.792 70.8226 142.511 70.7275 142.295 70.5372C142.078 70.3469 141.954 70.0837 141.924 69.7476H142.391C142.421 69.9699 142.5 70.138 142.628 70.2518C142.756 70.3638 142.925 70.4198 143.135 70.4198C143.364 70.4198 143.544 70.3416 143.674 70.1851C143.805 70.0286 143.871 69.8126 143.871 69.5369C143.871 69.2773 143.8 69.0692 143.658 68.9127C143.517 68.7545 143.329 68.6753 143.095 68.6753C142.88 68.6753 142.711 68.7225 142.588 68.8167L142.457 68.9234L142.062 68.822ZM144.861 67.6323C144.861 67.3994 144.934 67.2073 145.082 67.0562C145.231 66.905 145.423 66.8294 145.656 66.8294C145.892 66.8294 146.083 66.9059 146.229 67.0588C146.377 67.21 146.45 67.4065 146.45 67.6484V67.8377C146.45 68.0725 146.376 68.2645 146.226 68.4139C146.079 68.5615 145.89 68.6353 145.661 68.6353C145.43 68.6353 145.239 68.5615 145.087 68.4139C144.936 68.2645 144.861 68.0663 144.861 67.8191V67.6323ZM145.229 67.8377C145.229 67.9765 145.268 68.0912 145.346 68.1818C145.424 68.2708 145.529 68.3152 145.661 68.3152C145.787 68.3152 145.888 68.2717 145.965 68.1845C146.043 68.0974 146.082 67.9782 146.082 67.8271V67.6323C146.082 67.4936 146.044 67.3789 145.968 67.2882C145.891 67.1976 145.787 67.1522 145.656 67.1522C145.524 67.1522 145.42 67.1976 145.343 67.2882C145.267 67.3789 145.229 67.4972 145.229 67.643V67.8377ZM146.752 69.817C146.752 69.584 146.826 69.3929 146.973 69.2435C147.123 69.0923 147.314 69.0168 147.547 69.0168C147.78 69.0168 147.971 69.0915 148.12 69.2408C148.27 69.3902 148.344 69.5885 148.344 69.8357V70.0251C148.344 70.258 148.27 70.4501 148.12 70.6012C147.973 70.7506 147.783 70.8253 147.552 70.8253C147.321 70.8253 147.13 70.7515 146.979 70.6039C146.827 70.4545 146.752 70.2562 146.752 70.0091V69.817ZM147.12 70.0251C147.12 70.1656 147.159 70.2811 147.237 70.3718C147.316 70.4608 147.42 70.5052 147.552 70.5052C147.68 70.5052 147.782 70.4616 147.859 70.3745C147.935 70.2856 147.974 70.1656 147.974 70.0144V69.817C147.974 69.6765 147.934 69.5618 147.856 69.4729C147.78 69.384 147.677 69.3395 147.547 69.3395C147.42 69.3395 147.317 69.384 147.237 69.4729C147.159 69.56 147.12 69.6783 147.12 69.8277V70.0251ZM145.773 70.4759L145.493 70.2998L147.389 67.2642L147.669 67.4403L145.773 70.4759Z" fill="#F5F7F6"/>
<path d="M140.705 58.1573V58.5761H140.614C140.23 58.5832 139.924 58.697 139.696 58.9176C139.469 59.1381 139.337 59.4484 139.302 59.8485C139.506 59.6138 139.785 59.4964 140.139 59.4964C140.477 59.4964 140.746 59.6155 140.947 59.8538C141.15 60.0921 141.252 60.3998 141.252 60.7768C141.252 61.1769 141.142 61.497 140.923 61.7371C140.706 61.9771 140.415 62.0972 140.049 62.0972C139.677 62.0972 139.375 61.9549 139.144 61.6704C138.913 61.3841 138.797 61.016 138.797 60.566V60.3767C138.797 59.6618 138.95 59.1158 139.254 58.7388C139.559 58.3601 140.014 58.1662 140.617 58.1573H140.705ZM140.057 59.9072C139.888 59.9072 139.732 59.9579 139.59 60.0592C139.447 60.1606 139.349 60.2877 139.294 60.4407V60.6221C139.294 60.9422 139.366 61.2 139.51 61.3956C139.654 61.5912 139.833 61.6891 140.049 61.6891C140.271 61.6891 140.445 61.6072 140.571 61.4436C140.699 61.28 140.763 61.0658 140.763 60.8008C140.763 60.534 140.698 60.3189 140.569 60.1553C140.441 59.9899 140.27 59.9072 140.057 59.9072ZM144.271 60.3873C144.271 60.9653 144.172 61.3947 143.975 61.6757C143.778 61.9567 143.469 62.0972 143.049 62.0972C142.635 62.0972 142.328 61.9602 142.129 61.6864C141.93 61.4107 141.827 61 141.82 60.454V59.7952C141.82 59.2243 141.918 58.8002 142.116 58.5228C142.313 58.2454 142.623 58.1066 143.044 58.1066C143.462 58.1066 143.77 58.2409 143.967 58.5094C144.164 58.7762 144.266 59.1887 144.271 59.7471V60.3873ZM143.778 59.7125C143.778 59.2946 143.719 58.9905 143.602 58.8002C143.484 58.6081 143.298 58.5121 143.044 58.5121C142.792 58.5121 142.608 58.6072 142.492 58.7975C142.376 58.9878 142.317 59.2803 142.313 59.6751V60.4647C142.313 60.8844 142.374 61.1947 142.495 61.3956C142.617 61.5948 142.802 61.6944 143.049 61.6944C143.293 61.6944 143.474 61.6001 143.591 61.4116C143.71 61.2231 143.772 60.9262 143.778 60.5207V59.7125ZM144.861 58.9069C144.861 58.6739 144.934 58.4819 145.082 58.3307C145.231 58.1796 145.423 58.104 145.656 58.104C145.892 58.104 146.083 58.1804 146.229 58.3334C146.377 58.4845 146.45 58.681 146.45 58.9229V59.1123C146.45 59.347 146.376 59.5391 146.226 59.6885C146.079 59.8361 145.89 59.9099 145.661 59.9099C145.43 59.9099 145.239 59.8361 145.087 59.6885C144.936 59.5391 144.861 59.3408 144.861 59.0936V58.9069ZM145.229 59.1123C145.229 59.251 145.268 59.3657 145.346 59.4564C145.424 59.5453 145.529 59.5898 145.661 59.5898C145.787 59.5898 145.888 59.5462 145.965 59.459C146.043 59.3719 146.082 59.2528 146.082 59.1016V58.9069C146.082 58.7682 146.044 58.6535 145.968 58.5628C145.891 58.4721 145.787 58.4267 145.656 58.4267C145.524 58.4267 145.42 58.4721 145.343 58.5628C145.267 58.6535 145.229 58.7717 145.229 58.9176V59.1123ZM146.752 61.0915C146.752 60.8586 146.826 60.6674 146.973 60.518C147.123 60.3669 147.314 60.2913 147.547 60.2913C147.78 60.2913 147.971 60.366 148.12 60.5154C148.27 60.6647 148.344 60.863 148.344 61.1102V61.2996C148.344 61.5326 148.27 61.7246 148.12 61.8758C147.973 62.0252 147.783 62.0998 147.552 62.0998C147.321 62.0998 147.13 62.026 146.979 61.8784C146.827 61.7291 146.752 61.5308 146.752 61.2836V61.0915ZM147.12 61.2996C147.12 61.4401 147.159 61.5557 147.237 61.6464C147.316 61.7353 147.42 61.7797 147.552 61.7797C147.68 61.7797 147.782 61.7362 147.859 61.649C147.935 61.5601 147.974 61.4401 147.974 61.2889V61.0915C147.974 60.9511 147.934 60.8364 147.856 60.7474C147.78 60.6585 147.677 60.6141 147.547 60.6141C147.42 60.6141 147.317 60.6585 147.237 60.7474C147.159 60.8346 147.12 60.9528 147.12 61.1022V61.2996ZM145.773 61.7504L145.493 61.5743L147.389 58.5388L147.669 58.7148L145.773 61.7504Z" fill="#F5F7F6"/>
<path d="M138.995 51.2196L139.192 49.283H141.182V49.7392H139.611L139.494 50.7982C139.684 50.6861 139.9 50.6301 140.142 50.6301C140.496 50.6301 140.777 50.7475 140.985 50.9822C141.193 51.2152 141.297 51.5308 141.297 51.9292C141.297 52.3293 141.188 52.6449 140.971 52.8761C140.756 53.1055 140.455 53.2202 140.067 53.2202C139.724 53.2202 139.444 53.1251 139.227 52.9348C139.01 52.7445 138.886 52.4813 138.856 52.1452H139.323C139.353 52.3675 139.432 52.5356 139.56 52.6494C139.688 52.7614 139.857 52.8174 140.067 52.8174C140.297 52.8174 140.476 52.7392 140.606 52.5827C140.738 52.4262 140.803 52.2101 140.803 51.9345C140.803 51.6749 140.732 51.4668 140.59 51.3103C140.45 51.152 140.262 51.0729 140.027 51.0729C139.812 51.0729 139.643 51.12 139.52 51.2143L139.39 51.321L138.995 51.2196ZM144.271 51.5104C144.271 52.0883 144.172 52.5178 143.975 52.7988C143.778 53.0797 143.469 53.2202 143.049 53.2202C142.635 53.2202 142.328 53.0833 142.129 52.8094C141.93 52.5338 141.827 52.123 141.82 51.5771V50.9182C141.82 50.3474 141.918 49.9232 142.116 49.6458C142.313 49.3684 142.623 49.2297 143.044 49.2297C143.462 49.2297 143.77 49.364 143.967 49.6325C144.164 49.8992 144.266 50.3118 144.271 50.8702V51.5104ZM143.778 50.8355C143.778 50.4176 143.719 50.1135 143.602 49.9232C143.484 49.7312 143.298 49.6351 143.044 49.6351C142.792 49.6351 142.608 49.7303 142.492 49.9206C142.376 50.1108 142.317 50.4034 142.313 50.7982V51.5877C142.313 52.0074 142.374 52.3177 142.495 52.5187C142.617 52.7178 142.802 52.8174 143.049 52.8174C143.293 52.8174 143.474 52.7232 143.591 52.5347C143.71 52.3462 143.772 52.0492 143.778 51.6437V50.8355ZM144.861 50.0299C144.861 49.797 144.934 49.6049 145.082 49.4538C145.231 49.3026 145.423 49.227 145.656 49.227C145.892 49.227 146.083 49.3035 146.229 49.4564C146.377 49.6076 146.45 49.8041 146.45 50.0459V50.2353C146.45 50.4701 146.376 50.6621 146.226 50.8115C146.079 50.9591 145.89 51.0329 145.661 51.0329C145.43 51.0329 145.239 50.9591 145.087 50.8115C144.936 50.6621 144.861 50.4638 144.861 50.2167V50.0299ZM145.229 50.2353C145.229 50.374 145.268 50.4887 145.346 50.5794C145.424 50.6683 145.529 50.7128 145.661 50.7128C145.787 50.7128 145.888 50.6692 145.965 50.5821C146.043 50.495 146.082 50.3758 146.082 50.2247V50.0299C146.082 49.8912 146.044 49.7765 145.968 49.6858C145.891 49.5951 145.787 49.5498 145.656 49.5498C145.524 49.5498 145.42 49.5951 145.343 49.6858C145.267 49.7765 145.229 49.8948 145.229 50.0406V50.2353ZM146.752 52.2146C146.752 51.9816 146.826 51.7905 146.973 51.6411C147.123 51.4899 147.314 51.4143 147.547 51.4143C147.78 51.4143 147.971 51.489 148.12 51.6384C148.27 51.7878 148.344 51.9861 148.344 52.2333V52.4226C148.344 52.6556 148.27 52.8477 148.12 52.9988C147.973 53.1482 147.783 53.2229 147.552 53.2229C147.321 53.2229 147.13 53.1491 146.979 53.0015C146.827 52.8521 146.752 52.6538 146.752 52.4066V52.2146ZM147.12 52.4226C147.12 52.5631 147.159 52.6787 147.237 52.7694C147.316 52.8583 147.42 52.9028 147.552 52.9028C147.68 52.9028 147.782 52.8592 147.859 52.7721C147.935 52.6832 147.974 52.5631 147.974 52.412V52.2146C147.974 52.0741 147.934 51.9594 147.856 51.8705C147.78 51.7816 147.677 51.7371 147.547 51.7371C147.42 51.7371 147.317 51.7816 147.237 51.8705C147.159 51.9576 147.12 52.0759 147.12 52.2253V52.4226ZM145.773 52.8734L145.493 52.6974L147.389 49.6618L147.669 49.8379L145.773 52.8734Z" fill="#F5F7F6"/>
<path d="M139.486 41.5763H139.856C140.089 41.5728 140.273 41.5114 140.406 41.3923C140.539 41.2731 140.606 41.1122 140.606 40.9094C140.606 40.4542 140.379 40.2266 139.926 40.2266C139.712 40.2266 139.542 40.2879 139.414 40.4106C139.287 40.5316 139.224 40.6925 139.224 40.8934H138.731C138.731 40.5858 138.843 40.3306 139.067 40.1279C139.293 39.9234 139.579 39.8211 139.926 39.8211C140.292 39.8211 140.579 39.918 140.787 40.1119C140.995 40.3057 141.099 40.5751 141.099 40.9201C141.099 41.0891 141.044 41.2527 140.934 41.4109C140.826 41.5692 140.677 41.6875 140.489 41.7657C140.702 41.8333 140.867 41.9453 140.982 42.1018C141.099 42.2583 141.158 42.4495 141.158 42.6753C141.158 43.0239 141.044 43.3004 140.817 43.5049C140.589 43.7094 140.293 43.8117 139.928 43.8117C139.564 43.8117 139.267 43.713 139.038 43.5156C138.81 43.3182 138.696 43.0576 138.696 42.734H139.192C139.192 42.9385 139.259 43.1021 139.392 43.2248C139.526 43.3475 139.704 43.4089 139.928 43.4089C140.167 43.4089 140.349 43.3466 140.475 43.2221C140.602 43.0977 140.665 42.9189 140.665 42.686C140.665 42.4601 140.595 42.2867 140.457 42.1658C140.318 42.0449 140.118 41.9827 139.856 41.9791H139.486V41.5763ZM144.271 42.1018C144.271 42.6798 144.172 43.1092 143.975 43.3902C143.778 43.6712 143.469 43.8117 143.049 43.8117C142.635 43.8117 142.328 43.6747 142.129 43.4009C141.93 43.1252 141.827 42.7144 141.82 42.1685V41.5096C141.82 40.9388 141.918 40.5147 142.116 40.2372C142.313 39.9598 142.623 39.8211 143.044 39.8211C143.462 39.8211 143.77 39.9554 143.967 40.2239C144.164 40.4907 144.266 40.9032 144.271 41.4616V42.1018ZM143.778 41.4269C143.778 41.009 143.719 40.7049 143.602 40.5147C143.484 40.3226 143.298 40.2266 143.044 40.2266C142.792 40.2266 142.608 40.3217 142.492 40.512C142.376 40.7023 142.317 40.9948 142.313 41.3896V42.1792C142.313 42.5988 142.374 42.9092 142.495 43.1101C142.617 43.3093 142.802 43.4089 143.049 43.4089C143.293 43.4089 143.474 43.3146 143.591 43.1261C143.71 42.9376 143.772 42.6406 143.778 42.2352V41.4269ZM144.861 40.6214C144.861 40.3884 144.934 40.1963 145.082 40.0452C145.231 39.894 145.423 39.8185 145.656 39.8185C145.892 39.8185 146.083 39.8949 146.229 40.0479C146.377 40.199 146.45 40.3955 146.45 40.6374V40.8268C146.45 41.0615 146.376 41.2536 146.226 41.4029C146.079 41.5505 145.89 41.6243 145.661 41.6243C145.43 41.6243 145.239 41.5505 145.087 41.4029C144.936 41.2536 144.861 41.0553 144.861 40.8081V40.6214ZM145.229 40.8268C145.229 40.9655 145.268 41.0802 145.346 41.1709C145.424 41.2598 145.529 41.3042 145.661 41.3042C145.787 41.3042 145.888 41.2607 145.965 41.1735C146.043 41.0864 146.082 40.9672 146.082 40.8161V40.6214C146.082 40.4827 146.044 40.368 145.968 40.2773C145.891 40.1866 145.787 40.1412 145.656 40.1412C145.524 40.1412 145.42 40.1866 145.343 40.2773C145.267 40.368 145.229 40.4862 145.229 40.632V40.8268ZM146.752 42.806C146.752 42.5731 146.826 42.3819 146.973 42.2325C147.123 42.0814 147.314 42.0058 147.547 42.0058C147.78 42.0058 147.971 42.0805 148.12 42.2298C148.27 42.3792 148.344 42.5775 148.344 42.8247V43.0141C148.344 43.247 148.27 43.4391 148.12 43.5903C147.973 43.7396 147.783 43.8143 147.552 43.8143C147.321 43.8143 147.13 43.7405 146.979 43.5929C146.827 43.4435 146.752 43.2453 146.752 42.9981V42.806ZM147.12 43.0141C147.12 43.1546 147.159 43.2702 147.237 43.3608C147.316 43.4498 147.42 43.4942 147.552 43.4942C147.68 43.4942 147.782 43.4507 147.859 43.3635C147.935 43.2746 147.974 43.1546 147.974 43.0034V42.806C147.974 42.6655 147.934 42.5508 147.856 42.4619C147.78 42.373 147.677 42.3285 147.547 42.3285C147.42 42.3285 147.317 42.373 147.237 42.4619C147.159 42.549 147.12 42.6673 147.12 42.8167V43.0141ZM145.773 43.4649L145.493 43.2888L147.389 40.2533L147.669 40.4293L145.773 43.4649Z" fill="#F5F7F6"/>
<path d="M140.39 34.1986H139.894V30.9096L138.899 31.2751V30.8269L140.313 30.2961H140.39V34.1986ZM142.062 32.2514L142.26 30.3148H144.25V30.7709H142.679L142.561 31.8299C142.752 31.7179 142.968 31.6618 143.209 31.6618C143.563 31.6618 143.844 31.7792 144.052 32.014C144.26 32.2469 144.364 32.5626 144.364 32.9609C144.364 33.361 144.256 33.6767 144.039 33.9079C143.824 34.1373 143.522 34.252 143.135 34.252C142.792 34.252 142.511 34.1568 142.295 33.9665C142.078 33.7763 141.954 33.5131 141.924 33.177H142.391C142.421 33.3993 142.5 33.5673 142.628 33.6811C142.756 33.7932 142.925 33.8492 143.135 33.8492C143.364 33.8492 143.544 33.7709 143.674 33.6144C143.805 33.4579 143.871 33.2419 143.871 32.9662C143.871 32.7066 143.8 32.4985 143.658 32.3421C143.517 32.1838 143.329 32.1046 143.095 32.1046C142.88 32.1046 142.711 32.1518 142.588 32.246L142.457 32.3527L142.062 32.2514ZM144.861 31.0617C144.861 30.8287 144.934 30.6367 145.082 30.4855C145.231 30.3343 145.423 30.2588 145.656 30.2588C145.892 30.2588 146.083 30.3352 146.229 30.4882C146.377 30.6393 146.45 30.8358 146.45 31.0777V31.2671C146.45 31.5018 146.376 31.6939 146.226 31.8432C146.079 31.9908 145.89 32.0646 145.661 32.0646C145.43 32.0646 145.239 31.9908 145.087 31.8432C144.936 31.6939 144.861 31.4956 144.861 31.2484V31.0617ZM145.229 31.2671C145.229 31.4058 145.268 31.5205 145.346 31.6112C145.424 31.7001 145.529 31.7445 145.661 31.7445C145.787 31.7445 145.888 31.701 145.965 31.6138C146.043 31.5267 146.082 31.4076 146.082 31.2564V31.0617C146.082 30.923 146.044 30.8083 145.968 30.7176C145.891 30.6269 145.787 30.5815 145.656 30.5815C145.524 30.5815 145.42 30.6269 145.343 30.7176C145.267 30.8083 145.229 30.9265 145.229 31.0723V31.2671ZM146.752 33.2463C146.752 33.0134 146.826 32.8222 146.973 32.6728C147.123 32.5217 147.314 32.4461 147.547 32.4461C147.78 32.4461 147.971 32.5208 148.12 32.6702C148.27 32.8195 148.344 33.0178 148.344 33.265V33.4544C148.344 33.6873 148.27 33.8794 148.12 34.0306C147.973 34.1799 147.783 34.2546 147.552 34.2546C147.321 34.2546 147.13 34.1808 146.979 34.0332C146.827 33.8838 146.752 33.6856 146.752 33.4384V33.2463ZM147.12 33.4544C147.12 33.5949 147.159 33.7105 147.237 33.8012C147.316 33.8901 147.42 33.9345 147.552 33.9345C147.68 33.9345 147.782 33.891 147.859 33.8038C147.935 33.7149 147.974 33.5949 147.974 33.4437V33.2463C147.974 33.1058 147.934 32.9911 147.856 32.9022C147.78 32.8133 147.677 32.7688 147.547 32.7688C147.42 32.7688 147.317 32.8133 147.237 32.9022C147.159 32.9894 147.12 33.1076 147.12 33.257V33.4544ZM145.773 33.9052L145.493 33.7291L147.389 30.6936L147.669 30.8696L145.773 33.9052Z" fill="#F5F7F6"/>
<path d="M111.02 99.7582C108.969 98.1282 106.063 98.1011 104.093 99.7039C102.68 100.845 101.974 102.556 101.974 104.77C101.974 106.237 103.292 108.343 103.455 108.615C103.468 108.628 104.555 110.095 104.813 111.847L104.881 112.282H110.355L110.423 111.847C110.681 110.095 111.768 108.628 111.795 108.587C111.944 108.356 113.262 106.251 113.262 104.784C113.248 102.611 112.501 100.926 111.02 99.7582ZM107.502 102.638C106.579 102.665 105.737 103.236 105.383 104.091C105.302 104.281 105.112 104.404 104.908 104.404C104.84 104.404 104.772 104.39 104.704 104.363C104.446 104.254 104.324 103.955 104.433 103.697C104.949 102.475 106.144 101.66 107.462 101.619C107.733 101.606 107.978 101.836 107.978 102.122C108.005 102.393 107.788 102.624 107.502 102.638Z" fill="#193566"/>
<path d="M110.314 114.578H104.663C104.378 114.578 104.147 114.347 104.147 114.061C104.147 113.776 104.378 113.545 104.663 113.545H110.314C110.599 113.545 110.83 113.776 110.83 114.061C110.83 114.347 110.599 114.578 110.314 114.578Z" fill="#193566"/>
<path d="M109.037 114.306H105.818V115.651H109.037V114.306Z" fill="#193566"/>
<path d="M107.38 97.3674C107.095 97.3674 106.864 97.1365 106.864 96.8513V95.4114C106.864 95.1262 107.095 94.8953 107.38 94.8953C107.665 94.8953 107.896 95.1262 107.896 95.4114V96.8513C107.896 97.1501 107.665 97.3674 107.38 97.3674Z" fill="#193566"/>
<path d="M103.292 98.5222C103.115 98.5222 102.938 98.4271 102.843 98.2641L102.123 97.0144C101.988 96.7699 102.069 96.4575 102.314 96.3217C102.558 96.1858 102.871 96.2673 103.006 96.5118L103.726 97.7615C103.862 98.006 103.781 98.3184 103.536 98.4542C103.468 98.5086 103.387 98.5222 103.292 98.5222Z" fill="#193566"/>
<path d="M100.33 101.578C100.249 101.578 100.154 101.551 100.072 101.51L98.8227 100.791C98.5782 100.655 98.4967 100.342 98.6325 100.098C98.7684 99.8533 99.0808 99.7718 99.3253 99.9076L100.575 100.628C100.819 100.763 100.901 101.076 100.765 101.32C100.684 101.483 100.507 101.578 100.33 101.578Z" fill="#193566"/>
<path d="M99.2845 105.694H97.8447C97.5594 105.694 97.3285 105.463 97.3285 105.178C97.3285 104.893 97.5594 104.662 97.8447 104.662H99.2845C99.5697 104.662 99.8007 104.893 99.8007 105.178C99.8007 105.463 99.5697 105.694 99.2845 105.694Z" fill="#193566"/>
<path d="M99.203 110.503C99.0264 110.503 98.8498 110.407 98.7547 110.244C98.6189 110 98.7004 109.688 98.9449 109.552L100.195 108.832C100.439 108.696 100.751 108.777 100.887 109.022C101.023 109.266 100.942 109.579 100.697 109.715L99.4475 110.435C99.3796 110.475 99.2845 110.503 99.203 110.503Z" fill="#193566"/>
<path d="M115.91 110.312C115.829 110.312 115.734 110.285 115.652 110.244L114.403 109.525C114.158 109.389 114.077 109.076 114.213 108.832C114.348 108.587 114.661 108.506 114.905 108.642L116.155 109.362C116.399 109.497 116.481 109.81 116.345 110.054C116.25 110.217 116.087 110.312 115.91 110.312Z" fill="#193566"/>
<path d="M117.147 105.463H115.707C115.421 105.463 115.191 105.232 115.191 104.947C115.191 104.662 115.421 104.431 115.707 104.431H117.147C117.432 104.431 117.663 104.662 117.663 104.947C117.663 105.232 117.432 105.463 117.147 105.463Z" fill="#193566"/>
<path d="M114.552 101.375C114.376 101.375 114.199 101.28 114.104 101.117C113.968 100.872 114.05 100.56 114.294 100.424L115.544 99.7039C115.788 99.568 116.101 99.6495 116.236 99.894C116.372 100.139 116.291 100.451 116.046 100.587L114.797 101.307C114.729 101.361 114.634 101.375 114.552 101.375Z" fill="#193566"/>
<path d="M111.509 98.4134C111.428 98.4134 111.333 98.3862 111.251 98.3455C111.007 98.2096 110.925 97.8972 111.061 97.6527L111.781 96.4031C111.917 96.1586 112.229 96.0771 112.474 96.2129C112.718 96.3487 112.8 96.6611 112.664 96.9056L111.944 98.1553C111.849 98.3183 111.672 98.4134 111.509 98.4134Z" fill="#193566"/>
<defs>
<radialGradient id="paint0_radial_318_9" cx="0" cy="0" r="1" gradientUnits="userSpaceOnUse" gradientTransform="translate(69.5375 90.8326) rotate(-90) scale(65.2316)">
<stop stop-color="#0066FF"/>
<stop offset="0.276042" stop-color="#0066FF"/>
<stop offset="0.6406" stop-color="#0097CE"/>
<stop offset="1" stop-color="#0058CB"/>
</radialGradient>
<linearGradient id="paint1_linear_318_9" x1="73.9449" y1="173.253" x2="73.9449" y2="42.3471" gradientUnits="userSpaceOnUse">
<stop stop-color="#27B7FF"/>
<stop offset="0.9899" stop-color="#F408AB"/>
</linearGradient>
<radialGradient id="paint2_radial_318_9" cx="0" cy="0" r="1" gradientUnits="userSpaceOnUse" gradientTransform="translate(78.3524 90.8324) rotate(-90) scale(65.2318)">
<stop stop-color="#0066FF"/>
<stop offset="0.307292" stop-color="#0066FF"/>
<stop offset="0.651042" stop-color="#0097CE"/>
<stop offset="0.9819" stop-color="#0058CB"/>
</radialGradient>
<linearGradient id="paint3_linear_318_9" x1="104.126" y1="173.253" x2="104.126" y2="42.3465" gradientUnits="userSpaceOnUse">
<stop stop-color="#27B7FF"/>
<stop offset="0.9899" stop-color="#F408AB"/>
</linearGradient>
<radialGradient id="paint4_radial_318_9" cx="0" cy="0" r="1" gradientUnits="userSpaceOnUse" gradientTransform="translate(107.443 90.8326) rotate(-90) scale(65.2315)">
<stop stop-color="#0066FF"/>
<stop offset="0.338542" stop-color="#0066FF"/>
<stop offset="0.692708" stop-color="#0097CE"/>
<stop offset="0.9819" stop-color="#0058CB"/>
</radialGradient>
<radialGradient id="paint5_radial_318_9" cx="0" cy="0" r="1" gradientUnits="userSpaceOnUse" gradientTransform="translate(114.495 112.65) scale(31.7366 31.7366)">
<stop offset="0.000116"/>
<stop offset="0.0894" stop-color="#1D1D1D"/>
<stop offset="0.3464" stop-color="#6C6C6C"/>
<stop offset="0.5751" stop-color="#ABABAB"/>
<stop offset="0.7669" stop-color="#D9D9D9"/>
<stop offset="0.9145" stop-color="#F5F5F5"/>
<stop offset="1" stop-color="white"/>
</radialGradient>
<linearGradient id="paint6_linear_318_9" x1="135.652" y1="133.218" x2="83.5189" y2="81.0856" gradientUnits="userSpaceOnUse">
<stop stop-color="#071A35"/>
<stop offset="1" stop-color="#193566"/>
</linearGradient>
</defs>
</svg>
