<svg width="193" height="115" viewBox="0 0 193 115" fill="none" xmlns="http://www.w3.org/2000/svg">
<rect width="192.224" height="114.361" rx="14.7953" fill="black"/>
<rect x="0.308235" y="0.308235" width="191.607" height="113.745" rx="14.4871" stroke="white" stroke-opacity="0.5" stroke-width="0.616471"/>
<path d="M31.8806 27.4745H31.4832V82.8463H31.8806V27.4745Z" fill="white"/>
<path d="M165.699 82.6516H31.5643V83.0491H165.699V82.6516Z" fill="white"/>
<path d="M165.699 71.5724H31.5643V71.9698H165.699V71.5724Z" fill="white"/>
<path d="M165.699 60.5012H31.5643V60.8986H165.699V60.5012Z" fill="white"/>
<path d="M165.699 49.4302H31.5643V49.8276H165.699V49.4302Z" fill="white"/>
<path d="M165.699 38.351H31.5643V38.7484H165.699V38.351Z" fill="white"/>
<path d="M165.7 27.2798H31.5647V27.6772H165.7V27.2798Z" fill="white"/>
<path d="M48.6374 27.4745H48.2399V82.8463H48.6374V27.4745Z" fill="white"/>
<path d="M65.3941 27.4745H64.9967V82.8463H65.3941V27.4745Z" fill="white"/>
<path d="M82.1508 27.4745H81.7534V82.8463H82.1508V27.4745Z" fill="white"/>
<path d="M98.9076 27.4745H98.5101V82.8463H98.9076V27.4745Z" fill="white"/>
<path d="M115.664 27.4745H115.267V82.8463H115.664V27.4745Z" fill="white"/>
<path d="M132.421 27.4745H132.024V82.8463H132.421V27.4745Z" fill="white"/>
<path d="M149.178 27.4745H148.78V82.8463H149.178V27.4745Z" fill="white"/>
<path d="M165.934 27.4745H165.537V82.8463H165.934V27.4745Z" fill="white"/>
<path d="M32.132 60.2096L49.0023 48.222L65.0858 60.0068H82.3535L99.2319 37.0454L115.307 48.222L132.583 36.8427H165.732V82.8385H31.7021L32.132 60.2096Z" fill="url(#paint0_linear_318_200)"/>
<path d="M165.732 82.8381V48.1567H149.851L132.916 59.8037L115.705 36.7693L99.0292 48.9678H82.3535L65.1507 72.0022L49.0023 59.8037L31.7833 71.7265L31.7021 82.8381H165.732Z" fill="url(#paint1_linear_318_200)"/>
<path d="M36.3404 85.7212H36.6511V87.3809C36.6511 87.6052 36.5835 87.7807 36.4482 87.9073C36.3141 88.0339 36.1349 88.0973 35.9106 88.0973C35.6777 88.0973 35.4963 88.0377 35.3665 87.9186C35.2366 87.7994 35.1717 87.6326 35.1717 87.4179H35.4808C35.4808 87.5521 35.5173 87.6567 35.5902 87.7318C35.6643 87.807 35.7711 87.8445 35.9106 87.8445C36.0383 87.8445 36.1413 87.8043 36.2197 87.7238C36.2991 87.6433 36.3393 87.5306 36.3404 87.3857V85.7212ZM38.4363 87.4533H37.4544L37.2338 88.0651H36.9151L37.8101 85.7212H38.0806L38.9772 88.0651H38.6601L38.4363 87.4533ZM37.5477 87.199H38.3446L37.9453 86.1027L37.5477 87.199ZM41.0941 88.0651H40.7834L39.6034 86.2589V88.0651H39.2927V85.7212H39.6034L40.7866 87.5354V85.7212H41.0941V88.0651Z" fill="#F5F7F6"/>
<path d="M53.7537 87.03H52.7701V88.0651H52.461V85.7212H53.913V85.9756H52.7701V86.7772H53.7537V87.03ZM55.6081 86.9817H54.5924V87.8123H55.7723V88.0651H54.2833V85.7212H55.7562V85.9756H54.5924V86.7289H55.6081V86.9817ZM56.1571 88.0651V85.7212H56.9233C57.1777 85.7212 57.3687 85.7738 57.4964 85.879C57.6252 85.9841 57.6896 86.1398 57.6896 86.3458C57.6896 86.4553 57.6585 86.5524 57.5962 86.6372C57.534 86.7209 57.4492 86.7858 57.3419 86.832C57.4685 86.8674 57.5683 86.935 57.6413 87.0348C57.7154 87.1335 57.7524 87.2516 57.7524 87.389C57.7524 87.5993 57.6842 87.7646 57.5479 87.8848C57.4116 88.005 57.219 88.0651 56.97 88.0651H56.1571ZM56.4662 86.9688V87.8123H56.9765C57.1203 87.8123 57.2335 87.7753 57.3161 87.7013C57.3998 87.6261 57.4417 87.5231 57.4417 87.3922C57.4417 87.1099 57.2882 86.9688 56.9813 86.9688H56.4662ZM56.4662 86.7209H56.933C57.0682 86.7209 57.1761 86.6871 57.2566 86.6195C57.3381 86.5519 57.3789 86.4601 57.3789 86.3442C57.3789 86.2154 57.3414 86.1221 57.2662 86.0641C57.1911 86.0051 57.0768 85.9756 56.9233 85.9756H56.4662V86.7209Z" fill="#F5F7F6"/>
<path d="M70.7865 85.7212L71.5528 87.6336L72.319 85.7212H72.7199V88.0651H72.4108V87.1523L72.4398 86.1671L71.6703 88.0651H71.4336L70.6658 86.172L70.6964 87.1523V88.0651H70.3873V85.7212H70.7865ZM74.5888 87.4533H73.6069L73.3863 88.0651H73.0676L73.9626 85.7212H74.2331L75.1297 88.0651H74.8126L74.5888 87.4533ZM73.7002 87.199H74.4971L74.0978 86.1027L73.7002 87.199ZM76.3049 87.1169H75.7543V88.0651H75.4436V85.7212H76.2195C76.4835 85.7212 76.6864 85.7813 76.828 85.9015C76.9708 86.0217 77.0421 86.1966 77.0421 86.4263C77.0421 86.5723 77.0024 86.6994 76.923 86.8078C76.8447 86.9162 76.7352 86.9972 76.5946 87.0509L77.1452 88.0457V88.0651H76.8136L76.3049 87.1169ZM75.7543 86.8642H76.2292C76.3827 86.8642 76.5045 86.8245 76.5946 86.745C76.6858 86.6656 76.7315 86.5594 76.7315 86.4263C76.7315 86.2814 76.688 86.1703 76.6011 86.0931C76.5152 86.0158 76.3907 85.9766 76.2276 85.9756H75.7543V86.8642Z" fill="#F5F7F6"/>
<path d="M88.7842 87.4533H87.8022L87.5817 88.0651H87.263L88.158 85.7212H88.4285L89.3251 88.0651H89.008L88.7842 87.4533ZM87.8956 87.199H88.6925L88.2932 86.1027L87.8956 87.199ZM89.9497 87.1475V88.0651H89.6406V85.7212H90.5051C90.7616 85.7212 90.9623 85.7867 91.1071 85.9176C91.2531 86.0485 91.3261 86.2219 91.3261 86.4376C91.3261 86.6651 91.2547 86.8406 91.112 86.964C90.9703 87.0863 90.7669 87.1475 90.5019 87.1475H89.9497ZM89.9497 86.8947H90.5051C90.6703 86.8947 90.797 86.8561 90.885 86.7788C90.973 86.7005 91.017 86.5878 91.017 86.4408C91.017 86.3013 90.973 86.1897 90.885 86.106C90.797 86.0222 90.6763 85.9788 90.5228 85.9756H89.9497V86.8947ZM92.5801 87.1169H92.0295V88.0651H91.7189V85.7212H92.4948C92.7588 85.7212 92.9616 85.7813 93.1033 85.9015C93.246 86.0217 93.3174 86.1966 93.3174 86.4263C93.3174 86.5723 93.2777 86.6994 93.1982 86.8078C93.1199 86.9162 93.0104 86.9972 92.8699 87.0509L93.4204 88.0457V88.0651H93.0888L92.5801 87.1169ZM92.0295 86.8642H92.5044C92.6579 86.8642 92.7797 86.8245 92.8699 86.745C92.9611 86.6656 93.0067 86.5594 93.0067 86.4263C93.0067 86.2814 92.9632 86.1703 92.8763 86.0931C92.7904 86.0158 92.6659 85.9766 92.5028 85.9756H92.0295V86.8642Z" fill="#F5F7F6"/>
<path d="M106.64 85.7212L107.406 87.6336L108.173 85.7212H108.573V88.0651H108.264V87.1523L108.293 86.1671L107.524 88.0651H107.287L106.519 86.172L106.55 87.1523V88.0651H106.241V85.7212H106.64ZM110.442 87.4533H109.46L109.24 88.0651H108.921L109.816 85.7212H110.087L110.983 88.0651H110.666L110.442 87.4533ZM109.554 87.199H110.351L109.951 86.1027L109.554 87.199ZM111.862 86.898L112.474 85.7212H112.825L112.017 87.1909V88.0651H111.708V87.1909L110.899 85.7212H111.254L111.862 86.898Z" fill="#F5F7F6"/>
<path d="M124.325 85.7212H124.636V87.3809C124.636 87.6052 124.568 87.7807 124.433 87.9073C124.299 88.0339 124.12 88.0973 123.895 88.0973C123.663 88.0973 123.481 88.0377 123.351 87.9186C123.222 87.7994 123.157 87.6326 123.157 87.4179H123.466C123.466 87.5521 123.502 87.6567 123.575 87.7318C123.649 87.807 123.756 87.8445 123.895 87.8445C124.023 87.8445 124.126 87.8043 124.205 87.7238C124.284 87.6433 124.324 87.5306 124.325 87.3857V85.7212ZM126.812 85.7212V87.3149C126.811 87.536 126.742 87.7168 126.603 87.8574C126.466 87.998 126.279 88.0769 126.043 88.094L125.961 88.0973C125.704 88.0973 125.5 88.028 125.348 87.8896C125.195 87.7512 125.118 87.5607 125.116 87.3181V85.7212H125.422V87.3085C125.422 87.478 125.468 87.61 125.562 87.7045C125.655 87.7978 125.788 87.8445 125.961 87.8445C126.136 87.8445 126.269 87.7978 126.362 87.7045C126.455 87.6111 126.502 87.4796 126.502 87.3101V85.7212H126.812ZM129.102 88.0651H128.791L127.611 86.2589V88.0651H127.3V85.7212H127.611L128.794 87.5354V85.7212H129.102V88.0651Z" fill="#F5F7F6"/>
<path d="M142.252 85.7212H142.563V87.3809C142.563 87.6052 142.495 87.7807 142.36 87.9073C142.226 88.0339 142.047 88.0973 141.822 88.0973C141.589 88.0973 141.408 88.0377 141.278 87.9186C141.148 87.7994 141.083 87.6326 141.083 87.4179H141.392C141.392 87.5521 141.429 87.6567 141.502 87.7318C141.576 87.807 141.683 87.8445 141.822 87.8445C141.95 87.8445 142.053 87.8043 142.131 87.7238C142.211 87.6433 142.251 87.5306 142.252 87.3857V85.7212ZM144.739 85.7212V87.3149C144.738 87.536 144.668 87.7168 144.53 87.8574C144.393 87.998 144.206 88.0769 143.97 88.094L143.888 88.0973C143.631 88.0973 143.427 88.028 143.274 87.8896C143.122 87.7512 143.045 87.5607 143.042 87.3181V85.7212H143.348V87.3085C143.348 87.478 143.395 87.61 143.488 87.7045C143.582 87.7978 143.715 87.8445 143.888 87.8445C144.063 87.8445 144.196 87.7978 144.288 87.7045C144.382 87.6111 144.429 87.4796 144.429 87.3101V85.7212H144.739ZM145.538 87.8123H146.648V88.0651H145.227V85.7212H145.538V87.8123Z" fill="#F5F7F6"/>
<path d="M159.667 87.4533H158.685L158.464 88.0651H158.146L159.041 85.7212H159.311L160.208 88.0651H159.891L159.667 87.4533ZM158.778 87.199H159.575L159.176 86.1027L158.778 87.199ZM162.144 85.7212V87.3149C162.143 87.536 162.074 87.7168 161.935 87.8574C161.798 87.998 161.611 88.0769 161.375 88.094L161.293 88.0973C161.036 88.0973 160.832 88.028 160.68 87.8896C160.527 87.7512 160.45 87.5607 160.448 87.3181V85.7212H160.754V87.3085C160.754 87.478 160.8 87.61 160.894 87.7045C160.987 87.7978 161.12 87.8445 161.293 87.8445C161.468 87.8445 161.601 87.7978 161.694 87.7045C161.787 87.6111 161.834 87.4796 161.834 87.3101V85.7212H162.144ZM164.363 87.7576C164.283 87.8714 164.172 87.9567 164.029 88.0136C163.888 88.0694 163.723 88.0973 163.534 88.0973C163.343 88.0973 163.173 88.0527 163.025 87.9636C162.877 87.8735 162.762 87.7458 162.68 87.5805C162.6 87.4152 162.559 87.2237 162.557 87.0058V86.8014C162.557 86.4483 162.639 86.1746 162.803 85.9804C162.968 85.7861 163.2 85.689 163.498 85.689C163.743 85.689 163.94 85.7518 164.089 85.8774C164.238 86.0019 164.329 86.1789 164.363 86.4086H164.054C163.996 86.0984 163.811 85.9434 163.5 85.9434C163.293 85.9434 163.136 86.0163 163.028 86.1623C162.922 86.3072 162.868 86.5175 162.867 86.7933V86.9849C162.867 87.2478 162.927 87.4571 163.048 87.6127C163.168 87.7673 163.33 87.8445 163.535 87.8445C163.651 87.8445 163.753 87.8316 163.84 87.8059C163.926 87.7801 163.998 87.7367 164.055 87.6755V87.1491H163.513V86.898H164.363V87.7576Z" fill="#F5F7F6"/>
<path d="M27.6188 82.1855C27.6188 82.5343 27.5592 82.7935 27.4401 82.963C27.321 83.1326 27.1348 83.2174 26.8815 83.2174C26.6315 83.2174 26.4463 83.1347 26.3261 82.9695C26.2059 82.8031 26.1437 82.5552 26.1394 82.2257V81.8281C26.1394 81.4836 26.199 81.2277 26.3181 81.0603C26.4372 80.8928 26.624 80.8091 26.8783 80.8091C27.1305 80.8091 27.3162 80.8902 27.4353 81.0522C27.5544 81.2132 27.6156 81.4622 27.6188 81.7992V82.1855ZM27.321 81.7782C27.321 81.526 27.2856 81.3425 27.2147 81.2277C27.1439 81.1118 27.0318 81.0538 26.8783 81.0538C26.7259 81.0538 26.6148 81.1112 26.5451 81.2261C26.4753 81.3409 26.4394 81.5174 26.4372 81.7557V82.2322C26.4372 82.4855 26.4737 82.6727 26.5467 82.794C26.6207 82.9142 26.7323 82.9743 26.8815 82.9743C27.0285 82.9743 27.1375 82.9174 27.2083 82.8037C27.2802 82.6899 27.3178 82.5107 27.321 82.266V81.7782Z" fill="#F5F7F6"/>
<path d="M27.1278 73.0238H26.8284V71.0389L26.2279 71.2595V70.989L27.0811 70.6687H27.1278V73.0238ZM29.4701 72.0241C29.4701 72.3729 29.4105 72.6321 29.2914 72.8017C29.1722 72.9712 28.986 73.056 28.7328 73.056C28.4827 73.056 28.2976 72.9734 28.1774 72.8081C28.0572 72.6417 27.995 72.3938 27.9907 72.0644V71.6668C27.9907 71.3223 28.0502 71.0663 28.1693 70.8989C28.2885 70.7315 28.4752 70.6478 28.7296 70.6478C28.9818 70.6478 29.1674 70.7288 29.2865 70.8908C29.4057 71.0518 29.4668 71.3008 29.4701 71.6378V72.0241ZM29.1722 71.6169C29.1722 71.3647 29.1368 71.1811 29.066 71.0663C28.9952 70.9504 28.883 70.8924 28.7296 70.8924C28.5772 70.8924 28.4661 70.9499 28.3963 71.0647C28.3266 71.1795 28.2906 71.3561 28.2885 71.5943V72.0708C28.2885 72.3241 28.325 72.5114 28.3979 72.6326C28.472 72.7528 28.5836 72.8129 28.7328 72.8129C28.8798 72.8129 28.9887 72.756 29.0596 72.6423C29.1315 72.5285 29.169 72.3493 29.1722 72.1046V71.6169Z" fill="#F5F7F6"/>
<path d="M27.1278 61.505H26.8284V59.5201L26.2279 59.7407V59.4702L27.0811 59.1499H27.1278V61.505ZM28.9791 61.505H28.6797V59.5201L28.0792 59.7407V59.4702L28.9324 59.1499H28.9791V61.505Z" fill="#F5F7F6"/>
<path d="M27.1278 50.7471H26.8284V48.7622L26.2279 48.9827V48.7123L27.0811 48.392H27.1278V50.7471ZM29.5361 50.7471H28.0003V50.533L28.8117 49.6315C28.9319 49.4952 29.0145 49.3847 29.0596 49.2999C29.1057 49.214 29.1288 49.1255 29.1288 49.0343C29.1288 48.9119 29.0918 48.8116 29.0177 48.7332C28.9437 48.6549 28.8449 48.6157 28.7215 48.6157C28.5734 48.6157 28.458 48.6581 28.3754 48.7429C28.2938 48.8266 28.2531 48.9436 28.2531 49.0938H27.9552C27.9552 48.8781 28.0245 48.7037 28.1629 48.5706C28.3024 48.4376 28.4886 48.371 28.7215 48.371C28.9394 48.371 29.1116 48.4284 29.2382 48.5433C29.3649 48.657 29.4282 48.8089 29.4282 48.9988C29.4282 49.2296 29.2812 49.5043 28.9871 49.8231L28.3593 50.504H29.5361V50.7471Z" fill="#F5F7F6"/>
<path d="M27.1278 40.2079H26.8284V38.223L26.2279 38.4436V38.1731L27.0811 37.8528H27.1278V40.2079ZM28.4334 38.8911H28.6571C28.7977 38.8889 28.9082 38.8519 28.9887 38.78C29.0692 38.7081 29.1095 38.611 29.1095 38.4886C29.1095 38.2139 28.9726 38.0765 28.699 38.0765C28.5702 38.0765 28.4672 38.1136 28.3899 38.1876C28.3137 38.2606 28.2756 38.3577 28.2756 38.479H27.9778C27.9778 38.2933 28.0454 38.1393 28.1806 38.017C28.3169 37.8936 28.4897 37.8318 28.699 37.8318C28.92 37.8318 29.0934 37.8903 29.2189 38.0073C29.3445 38.1243 29.4073 38.2869 29.4073 38.4951C29.4073 38.597 29.374 38.6958 29.3075 38.7913C29.242 38.8868 29.1524 38.9582 29.0386 39.0054C29.1674 39.0462 29.2667 39.1138 29.3364 39.2082C29.4073 39.3026 29.4427 39.418 29.4427 39.5543C29.4427 39.7647 29.374 39.9315 29.2366 40.055C29.0993 40.1784 28.9206 40.2401 28.7006 40.2401C28.4806 40.2401 28.3014 40.1805 28.1629 40.0614C28.0255 39.9423 27.9569 39.785 27.9569 39.5897H28.2563C28.2563 39.7131 28.2965 39.8119 28.377 39.8859C28.4575 39.96 28.5654 39.997 28.7006 39.997C28.8444 39.997 28.9544 39.9594 29.0306 39.8843C29.1068 39.8092 29.1449 39.7013 29.1449 39.5608C29.1449 39.4245 29.103 39.3198 29.0193 39.2468C28.9356 39.1739 28.8149 39.1363 28.6571 39.1342H28.4334V38.8911Z" fill="#F5F7F6"/>
<path d="M27.1278 28.9543H26.8284V26.9695L26.2279 27.19V26.9196L27.0811 26.5992H27.1278V28.9543ZM29.2576 28.1672H29.5827V28.4102H29.2576V28.9543H28.9581V28.4102H27.8909V28.2348L28.9404 26.6105H29.2576V28.1672ZM28.2289 28.1672H28.9581V27.0178L28.9227 27.0822L28.2289 28.1672Z" fill="#F5F7F6"/>
<defs>
<linearGradient id="paint0_linear_318_200" x1="98.7178" y1="80.793" x2="98.7178" y2="18.7517" gradientUnits="userSpaceOnUse">
<stop stop-color="#27B7FF"/>
<stop offset="0.895833" stop-color="#F408AB"/>
</linearGradient>
<linearGradient id="paint1_linear_318_200" x1="98.7178" y1="105.397" x2="98.7178" y2="40.285" gradientUnits="userSpaceOnUse">
<stop offset="0.000116" stop-color="#0055CB"/>
<stop offset="0.3594" stop-color="#0077CE"/>
<stop offset="0.6484" stop-color="#0066FF"/>
<stop offset="0.8709" stop-color="#0066FF"/>
<stop offset="1" stop-color="#0066FF"/>
</linearGradient>
</defs>
</svg>
