<svg width="253" height="151" viewBox="0 0 253 151" fill="none" xmlns="http://www.w3.org/2000/svg">
<rect width="252.243" height="150.048" rx="14.7953" fill="black"/>
<rect x="0.308235" y="0.308235" width="251.627" height="149.432" rx="14.4871" stroke="white" stroke-opacity="0.5" stroke-width="0.616471"/>
<path d="M228.321 27.6832H33.8098V28.2753H228.321V27.6832Z" fill="#FDFEFF"/>
<path d="M228.321 34.3097H33.8098V34.9018H228.321V34.3097Z" fill="#FDFEFF"/>
<path d="M228.321 40.9362H33.8098V41.5282H228.321V40.9362Z" fill="#FDFEFF"/>
<path d="M228.321 47.5707H33.8098V48.1709H228.321V47.5707Z" fill="#FDFEFF"/>
<path d="M228.321 54.1973H33.8098V54.7975H228.321V54.1973Z" fill="#FDFEFF"/>
<path d="M228.321 60.8236H33.8098V61.4238H228.321V60.8236Z" fill="#FDFEFF"/>
<path d="M228.321 67.4501H33.8098V68.0422H228.321V67.4501Z" fill="#FDFEFF"/>
<path d="M228.321 74.0764H33.8098V74.6766H228.321V74.0764Z" fill="#FDFEFF"/>
<path d="M228.321 80.703H33.8098V81.2951H228.321V80.703Z" fill="#FDFEFF"/>
<path d="M228.321 87.3375H33.8098V87.9296H228.321V87.3375Z" fill="#FDFEFF"/>
<path d="M228.321 93.964H33.8098V94.5561H228.321V93.964Z" fill="#FDFEFF"/>
<path d="M228.321 100.59H33.8098V101.183H228.321V100.59Z" fill="#FDFEFF"/>
<path d="M228.321 107.217H33.8098V107.809H228.321V107.217Z" fill="#FDFEFF"/>
<path d="M228.321 113.843H33.8098V114.435H228.321V113.843Z" fill="#FDFEFF"/>
<path d="M33.8827 27.8617H33.2906V114.403H33.8827V27.8617Z" fill="#FDFEFF"/>
<path d="M51.5803 27.8617H50.9882V114.403H51.5803V27.8617Z" fill="#FDFEFF"/>
<path d="M69.2779 27.8617H68.6858V114.403H69.2779V27.8617Z" fill="#FDFEFF"/>
<path d="M86.9755 27.8617H86.3834V114.403H86.9755V27.8617Z" fill="#FDFEFF"/>
<path d="M104.673 27.8617H104.081V114.403H104.673V27.8617Z" fill="#FDFEFF"/>
<path d="M122.362 27.8617H121.77V114.403H122.362V27.8617Z" fill="#FDFEFF"/>
<path d="M140.06 27.8617H139.468V114.403H140.06V27.8617Z" fill="#FDFEFF"/>
<path d="M157.758 27.8617H157.166V114.403H157.758V27.8617Z" fill="#FDFEFF"/>
<path d="M175.455 27.8617H174.863V114.403H175.455V27.8617Z" fill="#FDFEFF"/>
<path d="M193.153 27.8617H192.561V114.403H193.153V27.8617Z" fill="#FDFEFF"/>
<path d="M210.85 27.8617H210.258V114.403H210.85V27.8617Z" fill="#FDFEFF"/>
<path d="M228.54 27.8617H227.948V114.403H228.54V27.8617Z" fill="#FDFEFF"/>
<path d="M47.1171 124.374H44.616V124.026L45.9374 122.558C46.1331 122.336 46.2677 122.156 46.3411 122.018C46.4162 121.878 46.4538 121.734 46.4538 121.585C46.4538 121.386 46.3935 121.222 46.2729 121.095C46.1523 120.967 45.9915 120.903 45.7905 120.903C45.5494 120.903 45.3615 120.972 45.2269 121.11C45.0941 121.247 45.0276 121.437 45.0276 121.682H44.5426C44.5426 121.331 44.6554 121.047 44.8808 120.83C45.108 120.613 45.4113 120.505 45.7905 120.505C46.1453 120.505 46.4259 120.598 46.6321 120.785C46.8383 120.971 46.9414 121.218 46.9414 121.527C46.9414 121.903 46.702 122.35 46.2231 122.87L45.2007 123.979H47.1171V124.374ZM50.0245 122.746C50.0245 123.314 49.9275 123.736 49.7335 124.013C49.5395 124.289 49.2363 124.427 48.8238 124.427C48.4166 124.427 48.1151 124.292 47.9193 124.023C47.7236 123.752 47.6222 123.348 47.6152 122.812V122.164C47.6152 121.603 47.7122 121.186 47.9062 120.914C48.1002 120.641 48.4043 120.505 48.8185 120.505C49.2293 120.505 49.5316 120.637 49.7256 120.901C49.9196 121.163 50.0193 121.568 50.0245 122.117V122.746ZM49.5395 122.083C49.5395 121.672 49.4818 121.373 49.3665 121.186C49.2511 120.998 49.0685 120.903 48.8185 120.903C48.5704 120.903 48.3895 120.997 48.2759 121.184C48.1623 121.371 48.1037 121.658 48.1002 122.046V122.822C48.1002 123.235 48.1596 123.54 48.2785 123.737C48.3991 123.933 48.5808 124.031 48.8238 124.031C49.0632 124.031 49.2406 123.938 49.356 123.753C49.4731 123.568 49.5343 123.276 49.5395 122.877V122.083ZM52.2398 124.374H51.7522V121.142L50.7743 121.501V121.061L52.1638 120.539H52.2398V124.374ZM53.8836 122.461L54.0776 120.557H56.0333V121.006H54.4892L54.3738 122.046C54.5608 121.936 54.7732 121.881 55.0109 121.881C55.3587 121.881 55.6348 121.997 55.8393 122.227C56.0438 122.456 56.146 122.766 56.146 123.158C56.146 123.551 56.0394 123.861 55.8262 124.089C55.6147 124.314 55.3185 124.427 54.9375 124.427C54.6001 124.427 54.3249 124.333 54.1116 124.146C53.8984 123.959 53.7769 123.701 53.7472 123.37H54.206C54.2357 123.589 54.3135 123.754 54.4393 123.866C54.5652 123.976 54.7312 124.031 54.9375 124.031C55.1629 124.031 55.3394 123.954 55.467 123.8C55.5964 123.646 55.661 123.434 55.661 123.163C55.661 122.908 55.5911 122.704 55.4513 122.55C55.3132 122.394 55.1288 122.316 54.8981 122.316C54.6867 122.316 54.5206 122.363 54.4 122.455L54.2716 122.56L53.8836 122.461Z" fill="#F5F7F6"/>
<path d="M65.5194 124.374H63.0184V124.026L64.3397 122.558C64.5354 122.336 64.67 122.156 64.7434 122.018C64.8186 121.878 64.8562 121.734 64.8562 121.585C64.8562 121.386 64.7959 121.222 64.6753 121.095C64.5547 120.967 64.3939 120.903 64.1929 120.903C63.9517 120.903 63.7638 120.972 63.6292 121.11C63.4964 121.247 63.43 121.437 63.43 121.682H62.945C62.945 121.331 63.0577 121.047 63.2832 120.83C63.5104 120.613 63.8136 120.505 64.1929 120.505C64.5477 120.505 64.8282 120.598 65.0344 120.785C65.2407 120.971 65.3438 121.218 65.3438 121.527C65.3438 121.903 65.1043 122.35 64.6255 122.87L63.603 123.979H65.5194V124.374ZM68.4268 122.746C68.4268 123.314 68.3298 123.736 68.1358 124.013C67.9418 124.289 67.6386 124.427 67.2261 124.427C66.8189 124.427 66.5174 124.292 66.3217 124.023C66.1259 123.752 66.0245 123.348 66.0176 122.812V122.164C66.0176 121.603 66.1146 121.186 66.3086 120.914C66.5026 120.641 66.8067 120.505 67.2209 120.505C67.6316 120.505 67.934 120.637 68.128 120.901C68.322 121.163 68.4216 121.568 68.4268 122.117V122.746ZM67.9418 122.083C67.9418 121.672 67.8842 121.373 67.7688 121.186C67.6535 120.998 67.4708 120.903 67.2209 120.903C66.9727 120.903 66.7918 120.997 66.6782 121.184C66.5646 121.371 66.5061 121.658 66.5026 122.046V122.822C66.5026 123.235 66.562 123.54 66.6808 123.737C66.8014 123.933 66.9832 124.031 67.2261 124.031C67.4656 124.031 67.643 123.938 67.7583 123.753C67.8754 123.568 67.9366 123.276 67.9418 122.877V122.083ZM70.6421 124.374H70.1545V121.142L69.1766 121.501V121.061L70.5661 120.539H70.6421V124.374ZM73.9664 120.555V120.966H73.8772C73.4997 120.973 73.1991 121.085 72.9754 121.302C72.7517 121.519 72.6223 121.824 72.5874 122.217C72.7884 121.986 73.0628 121.871 73.4106 121.871C73.7427 121.871 74.0075 121.988 74.2049 122.222C74.4042 122.456 74.5038 122.759 74.5038 123.129C74.5038 123.522 74.3963 123.837 74.1814 124.073C73.9681 124.309 73.6815 124.427 73.3215 124.427C72.9562 124.427 72.6599 124.287 72.4327 124.007C72.2055 123.726 72.0919 123.364 72.0919 122.922V122.736C72.0919 122.033 72.2413 121.497 72.5402 121.126C72.8408 120.754 73.2874 120.563 73.8799 120.555H73.9664ZM73.3293 122.274C73.1633 122.274 73.0104 122.324 72.8705 122.424C72.7307 122.524 72.6337 122.648 72.5795 122.799V122.977C72.5795 123.292 72.6503 123.545 72.7919 123.737C72.9335 123.93 73.11 124.026 73.3215 124.026C73.5399 124.026 73.7112 123.945 73.8353 123.785C73.9611 123.624 74.0241 123.413 74.0241 123.153C74.0241 122.891 73.9603 122.679 73.8327 122.518C73.7068 122.356 73.5391 122.274 73.3293 122.274Z" fill="#F5F7F6"/>
<path d="M83.6921 124.374H81.1911V124.026L82.5124 122.558C82.7081 122.336 82.8427 122.156 82.9161 122.018C82.9913 121.878 83.0289 121.734 83.0289 121.585C83.0289 121.386 82.9686 121.222 82.848 121.095C82.7274 120.967 82.5666 120.903 82.3656 120.903C82.1244 120.903 81.9365 120.972 81.8019 121.11C81.6691 121.247 81.6027 121.437 81.6027 121.682H81.1177C81.1177 121.331 81.2304 121.047 81.4559 120.83C81.6831 120.613 81.9863 120.505 82.3656 120.505C82.7204 120.505 83.0009 120.598 83.2071 120.785C83.4134 120.971 83.5165 121.218 83.5165 121.527C83.5165 121.903 83.277 122.35 82.7982 122.87L81.7757 123.979H83.6921V124.374ZM86.5995 122.746C86.5995 123.314 86.5025 123.736 86.3085 124.013C86.1145 124.289 85.8113 124.427 85.3988 124.427C84.9916 124.427 84.6901 124.292 84.4944 124.023C84.2986 123.752 84.1972 123.348 84.1903 122.812V122.164C84.1903 121.603 84.2873 121.186 84.4813 120.914C84.6753 120.641 84.9794 120.505 85.3936 120.505C85.8043 120.505 86.1067 120.637 86.3007 120.901C86.4947 121.163 86.5943 121.568 86.5995 122.117V122.746ZM86.1145 122.083C86.1145 121.672 86.0569 121.373 85.9415 121.186C85.8262 120.998 85.6435 120.903 85.3936 120.903C85.1454 120.903 84.9645 120.997 84.8509 121.184C84.7373 121.371 84.6788 121.658 84.6753 122.046V122.822C84.6753 123.235 84.7347 123.54 84.8535 123.737C84.9741 123.933 85.1559 124.031 85.3988 124.031C85.6383 124.031 85.8157 123.938 85.931 123.753C86.0481 123.568 86.1093 123.276 86.1145 122.877V122.083ZM88.8148 124.374H88.3272V121.142L87.3493 121.501V121.061L88.7388 120.539H88.8148V124.374ZM92.7001 120.83L91.1193 124.374H90.6107L92.1863 120.956H90.1204V120.557H92.7001V120.83Z" fill="#F5F7F6"/>
<path d="M100.869 124.374H98.3677V124.026L99.689 122.558C99.8848 122.336 100.019 122.156 100.093 122.018C100.168 121.878 100.205 121.734 100.205 121.585C100.205 121.386 100.145 121.222 100.025 121.095C99.904 120.967 99.7432 120.903 99.5422 120.903C99.301 120.903 99.1131 120.972 98.9785 121.11C98.8457 121.247 98.7793 121.437 98.7793 121.682H98.2943C98.2943 121.331 98.407 121.047 98.6325 120.83C98.8597 120.613 99.1629 120.505 99.5422 120.505C99.897 120.505 100.178 120.598 100.384 120.785C100.59 120.971 100.693 121.218 100.693 121.527C100.693 121.903 100.454 122.35 99.9748 122.87L98.9523 123.979H100.869V124.374ZM103.776 122.746C103.776 123.314 103.679 123.736 103.485 124.013C103.291 124.289 102.988 124.427 102.575 124.427C102.168 124.427 101.867 124.292 101.671 124.023C101.475 123.752 101.374 123.348 101.367 122.812V122.164C101.367 121.603 101.464 121.186 101.658 120.914C101.852 120.641 102.156 120.505 102.57 120.505C102.981 120.505 103.283 120.637 103.477 120.901C103.671 121.163 103.771 121.568 103.776 122.117V122.746ZM103.291 122.083C103.291 121.672 103.233 121.373 103.118 121.186C103.003 120.998 102.82 120.903 102.57 120.903C102.322 120.903 102.141 120.997 102.028 121.184C101.914 121.371 101.855 121.658 101.852 122.046V122.822C101.852 123.235 101.911 123.54 102.03 123.737C102.151 123.933 102.332 124.031 102.575 124.031C102.815 124.031 102.992 123.938 103.108 123.753C103.225 123.568 103.286 123.276 103.291 122.877V122.083ZM105.991 124.374H105.504V121.142L104.526 121.501V121.061L105.915 120.539H105.991V124.374ZM109.727 121.554C109.727 121.744 109.677 121.914 109.575 122.062C109.476 122.211 109.34 122.327 109.169 122.411C109.368 122.496 109.525 122.621 109.641 122.786C109.758 122.95 109.816 123.136 109.816 123.344C109.816 123.674 109.705 123.937 109.481 124.133C109.259 124.329 108.966 124.427 108.603 124.427C108.236 124.427 107.941 124.329 107.719 124.133C107.499 123.936 107.389 123.673 107.389 123.344C107.389 123.138 107.445 122.952 107.557 122.786C107.67 122.62 107.827 122.494 108.026 122.408C107.856 122.324 107.723 122.208 107.625 122.059C107.527 121.911 107.478 121.742 107.478 121.554C107.478 121.232 107.581 120.977 107.787 120.788C107.994 120.599 108.265 120.505 108.603 120.505C108.938 120.505 109.209 120.599 109.415 120.788C109.623 120.977 109.727 121.232 109.727 121.554ZM109.331 123.334C109.331 123.12 109.263 122.946 109.127 122.812C108.992 122.677 108.816 122.61 108.597 122.61C108.379 122.61 108.203 122.676 108.07 122.809C107.939 122.942 107.874 123.117 107.874 123.334C107.874 123.55 107.938 123.721 108.065 123.845C108.194 123.969 108.374 124.031 108.603 124.031C108.83 124.031 109.008 123.969 109.137 123.845C109.267 123.719 109.331 123.549 109.331 123.334ZM108.603 120.903C108.412 120.903 108.257 120.963 108.139 121.082C108.021 121.199 107.963 121.359 107.963 121.561C107.963 121.755 108.021 121.913 108.136 122.033C108.253 122.152 108.409 122.212 108.603 122.212C108.797 122.212 108.951 122.152 109.067 122.033C109.184 121.913 109.242 121.755 109.242 121.561C109.242 121.367 109.182 121.209 109.061 121.087C108.941 120.965 108.788 120.903 108.603 120.903Z" fill="#F5F7F6"/>
<path d="M118.736 124.374H116.235V124.026L117.556 122.558C117.752 122.336 117.886 122.156 117.96 122.018C118.035 121.878 118.072 121.734 118.072 121.585C118.072 121.386 118.012 121.222 117.892 121.095C117.771 120.967 117.61 120.903 117.409 120.903C117.168 120.903 116.98 120.972 116.846 121.11C116.713 121.247 116.646 121.437 116.646 121.682H116.161C116.161 121.331 116.274 121.047 116.499 120.83C116.727 120.613 117.03 120.505 117.409 120.505C117.764 120.505 118.045 120.598 118.251 120.785C118.457 120.971 118.56 121.218 118.56 121.527C118.56 121.903 118.321 122.35 117.842 122.87L116.819 123.979H118.736V124.374ZM121.643 122.746C121.643 123.314 121.546 123.736 121.352 124.013C121.158 124.289 120.855 124.427 120.442 124.427C120.035 124.427 119.734 124.292 119.538 124.023C119.342 123.752 119.241 123.348 119.234 122.812V122.164C119.234 121.603 119.331 121.186 119.525 120.914C119.719 120.641 120.023 120.505 120.437 120.505C120.848 120.505 121.15 120.637 121.344 120.901C121.538 121.163 121.638 121.568 121.643 122.117V122.746ZM121.158 122.083C121.158 121.672 121.1 121.373 120.985 121.186C120.87 120.998 120.687 120.903 120.437 120.903C120.189 120.903 120.008 120.997 119.895 121.184C119.781 121.371 119.722 121.658 119.719 122.046V122.822C119.719 123.235 119.778 123.54 119.897 123.737C120.018 123.933 120.199 124.031 120.442 124.031C120.682 124.031 120.859 123.938 120.975 123.753C121.092 123.568 121.153 123.276 121.158 122.877V122.083ZM123.858 124.374H123.371V121.142L122.393 121.501V121.061L123.782 120.539H123.858V124.374ZM127.138 122.697C127.037 122.817 126.915 122.914 126.774 122.988C126.634 123.061 126.48 123.098 126.312 123.098C126.092 123.098 125.9 123.043 125.736 122.935C125.573 122.827 125.447 122.675 125.358 122.479C125.269 122.281 125.224 122.064 125.224 121.826C125.224 121.571 125.272 121.341 125.369 121.137C125.466 120.932 125.604 120.776 125.783 120.667C125.961 120.559 126.169 120.505 126.407 120.505C126.784 120.505 127.081 120.646 127.298 120.93C127.517 121.211 127.626 121.595 127.626 122.083V122.225C127.626 122.967 127.479 123.51 127.185 123.853C126.892 124.193 126.449 124.368 125.856 124.377H125.762V123.968H125.864C126.264 123.961 126.572 123.857 126.787 123.656C127.002 123.453 127.119 123.133 127.138 122.697ZM126.391 122.697C126.553 122.697 126.703 122.647 126.839 122.547C126.977 122.447 127.078 122.324 127.141 122.177V121.983C127.141 121.665 127.072 121.407 126.934 121.207C126.796 121.008 126.621 120.909 126.409 120.909C126.196 120.909 126.025 120.991 125.895 121.155C125.766 121.318 125.701 121.533 125.701 121.8C125.701 122.06 125.764 122.275 125.888 122.445C126.013 122.613 126.181 122.697 126.391 122.697Z" fill="#F5F7F6"/>
<path d="M137.139 124.374H134.638V124.026L135.959 122.558C136.155 122.336 136.289 122.156 136.363 122.018C136.438 121.878 136.476 121.734 136.476 121.585C136.476 121.386 136.415 121.222 136.295 121.095C136.174 120.967 136.013 120.903 135.812 120.903C135.571 120.903 135.383 120.972 135.249 121.11C135.116 121.247 135.049 121.437 135.049 121.682H134.564C134.564 121.331 134.677 121.047 134.903 120.83C135.13 120.613 135.433 120.505 135.812 120.505C136.167 120.505 136.448 120.598 136.654 120.785C136.86 120.971 136.963 121.218 136.963 121.527C136.963 121.903 136.724 122.35 136.245 122.87L135.222 123.979H137.139V124.374ZM140.046 122.746C140.046 123.314 139.949 123.736 139.755 124.013C139.561 124.289 139.258 124.427 138.846 124.427C138.438 124.427 138.137 124.292 137.941 124.023C137.745 123.752 137.644 123.348 137.637 122.812V122.164C137.637 121.603 137.734 121.186 137.928 120.914C138.122 120.641 138.426 120.505 138.84 120.505C139.251 120.505 139.553 120.637 139.747 120.901C139.941 121.163 140.041 121.568 140.046 122.117V122.746ZM139.561 122.083C139.561 121.672 139.504 121.373 139.388 121.186C139.273 120.998 139.09 120.903 138.84 120.903C138.592 120.903 138.411 120.997 138.298 121.184C138.184 121.371 138.125 121.658 138.122 122.046V122.822C138.122 123.235 138.181 123.54 138.3 123.737C138.421 123.933 138.603 124.031 138.846 124.031C139.085 124.031 139.262 123.938 139.378 123.753C139.495 123.568 139.556 123.276 139.561 122.877V122.083ZM143.169 124.374H140.668V124.026L141.989 122.558C142.185 122.336 142.319 122.156 142.393 122.018C142.468 121.878 142.505 121.734 142.505 121.585C142.505 121.386 142.445 121.222 142.324 121.095C142.204 120.967 142.043 120.903 141.842 120.903C141.601 120.903 141.413 120.972 141.278 121.11C141.146 121.247 141.079 121.437 141.079 121.682H140.594C140.594 121.331 140.707 121.047 140.932 120.83C141.16 120.613 141.463 120.505 141.842 120.505C142.197 120.505 142.477 120.598 142.684 120.785C142.89 120.971 142.993 121.218 142.993 121.527C142.993 121.903 142.754 122.35 142.275 122.87L141.252 123.979H143.169V124.374ZM146.076 122.746C146.076 123.314 145.979 123.736 145.785 124.013C145.591 124.289 145.288 124.427 144.875 124.427C144.468 124.427 144.167 124.292 143.971 124.023C143.775 123.752 143.674 123.348 143.667 122.812V122.164C143.667 121.603 143.764 121.186 143.958 120.914C144.152 120.641 144.456 120.505 144.87 120.505C145.281 120.505 145.583 120.637 145.777 120.901C145.971 121.163 146.071 121.568 146.076 122.117V122.746ZM145.591 122.083C145.591 121.672 145.533 121.373 145.418 121.186C145.303 120.998 145.12 120.903 144.87 120.903C144.622 120.903 144.441 120.997 144.327 121.184C144.214 121.371 144.155 121.658 144.152 122.046V122.822C144.152 123.235 144.211 123.54 144.33 123.737C144.451 123.933 144.632 124.031 144.875 124.031C145.115 124.031 145.292 123.938 145.408 123.753C145.525 123.568 145.586 123.276 145.591 122.877V122.083Z" fill="#F5F7F6"/>
<path d="M155.388 124.374H152.887V124.026L154.208 122.558C154.404 122.336 154.539 122.156 154.612 122.018C154.687 121.878 154.725 121.734 154.725 121.585C154.725 121.386 154.664 121.222 154.544 121.095C154.423 120.967 154.262 120.903 154.061 120.903C153.82 120.903 153.632 120.972 153.498 121.11C153.365 121.247 153.299 121.437 153.299 121.682H152.814C152.814 121.331 152.926 121.047 153.152 120.83C153.379 120.613 153.682 120.505 154.061 120.505C154.416 120.505 154.697 120.598 154.903 120.785C155.109 120.971 155.212 121.218 155.212 121.527C155.212 121.903 154.973 122.35 154.494 122.87L153.472 123.979H155.388V124.374ZM158.295 122.746C158.295 123.314 158.198 123.736 158.004 124.013C157.81 124.289 157.507 124.427 157.095 124.427C156.687 124.427 156.386 124.292 156.19 124.023C155.994 123.752 155.893 123.348 155.886 122.812V122.164C155.886 121.603 155.983 121.186 156.177 120.914C156.371 120.641 156.675 120.505 157.089 120.505C157.5 120.505 157.803 120.637 157.997 120.901C158.191 121.163 158.29 121.568 158.295 122.117V122.746ZM157.81 122.083C157.81 121.672 157.753 121.373 157.637 121.186C157.522 120.998 157.339 120.903 157.089 120.903C156.841 120.903 156.66 120.997 156.547 121.184C156.433 121.371 156.375 121.658 156.371 122.046V122.822C156.371 123.235 156.431 123.54 156.549 123.737C156.67 123.933 156.852 124.031 157.095 124.031C157.334 124.031 157.512 123.938 157.627 123.753C157.744 123.568 157.805 123.276 157.81 122.877V122.083ZM161.418 124.374H158.917V124.026L160.238 122.558C160.434 122.336 160.568 122.156 160.642 122.018C160.717 121.878 160.754 121.734 160.754 121.585C160.754 121.386 160.694 121.222 160.574 121.095C160.453 120.967 160.292 120.903 160.091 120.903C159.85 120.903 159.662 120.972 159.528 121.11C159.395 121.247 159.328 121.437 159.328 121.682H158.843C158.843 121.331 158.956 121.047 159.181 120.83C159.409 120.613 159.712 120.505 160.091 120.505C160.446 120.505 160.727 120.598 160.933 120.785C161.139 120.971 161.242 121.218 161.242 121.527C161.242 121.903 161.003 122.35 160.524 122.87L159.501 123.979H161.418V124.374ZM163.526 124.374H163.038V121.142L162.06 121.501V121.061L163.45 120.539H163.526V124.374Z" fill="#F5F7F6"/>
<path d="M172.68 124.374H170.179V124.026L171.5 122.558C171.696 122.336 171.831 122.156 171.904 122.018C171.979 121.878 172.017 121.734 172.017 121.585C172.017 121.386 171.957 121.222 171.836 121.095C171.715 120.967 171.555 120.903 171.354 120.903C171.112 120.903 170.925 120.972 170.79 121.11C170.657 121.247 170.591 121.437 170.591 121.682H170.106C170.106 121.331 170.219 121.047 170.444 120.83C170.671 120.613 170.974 120.505 171.354 120.505C171.708 120.505 171.989 120.598 172.195 120.785C172.401 120.971 172.505 121.218 172.505 121.527C172.505 121.903 172.265 122.35 171.786 122.87L170.764 123.979H172.68V124.374ZM175.588 122.746C175.588 123.314 175.491 123.736 175.297 124.013C175.103 124.289 174.799 124.427 174.387 124.427C173.98 124.427 173.678 124.292 173.482 124.023C173.287 123.752 173.185 123.348 173.178 122.812V122.164C173.178 121.603 173.275 121.186 173.469 120.914C173.663 120.641 173.967 120.505 174.382 120.505C174.792 120.505 175.095 120.637 175.289 120.901C175.483 121.163 175.582 121.568 175.588 122.117V122.746ZM175.103 122.083C175.103 121.672 175.045 121.373 174.93 121.186C174.814 120.998 174.632 120.903 174.382 120.903C174.134 120.903 173.953 120.997 173.839 121.184C173.725 121.371 173.667 121.658 173.663 122.046V122.822C173.663 123.235 173.723 123.54 173.842 123.737C173.962 123.933 174.144 124.031 174.387 124.031C174.626 124.031 174.804 123.938 174.919 123.753C175.036 123.568 175.097 123.276 175.103 122.877V122.083ZM178.71 124.374H176.209V124.026L177.53 122.558C177.726 122.336 177.861 122.156 177.934 122.018C178.009 121.878 178.047 121.734 178.047 121.585C178.047 121.386 177.986 121.222 177.866 121.095C177.745 120.967 177.584 120.903 177.383 120.903C177.142 120.903 176.954 120.972 176.82 121.11C176.687 121.247 176.621 121.437 176.621 121.682H176.136C176.136 121.331 176.248 121.047 176.474 120.83C176.701 120.613 177.004 120.505 177.383 120.505C177.738 120.505 178.019 120.598 178.225 120.785C178.431 120.971 178.534 121.218 178.534 121.527C178.534 121.903 178.295 122.35 177.816 122.87L176.794 123.979H178.71V124.374ZM181.725 124.374H179.224V124.026L180.545 122.558C180.741 122.336 180.875 122.156 180.949 122.018C181.024 121.878 181.062 121.734 181.062 121.585C181.062 121.386 181.001 121.222 180.881 121.095C180.76 120.967 180.599 120.903 180.398 120.903C180.157 120.903 179.969 120.972 179.835 121.11C179.702 121.247 179.635 121.437 179.635 121.682H179.15C179.15 121.331 179.263 121.047 179.489 120.83C179.716 120.613 180.019 120.505 180.398 120.505C180.753 120.505 181.034 120.598 181.24 120.785C181.446 120.971 181.549 121.218 181.549 121.527C181.549 121.903 181.31 122.35 180.831 122.87L179.808 123.979H181.725V124.374Z" fill="#F5F7F6"/>
<path d="M190.011 124.374H187.509V124.026L188.831 122.558C189.027 122.336 189.161 122.156 189.235 122.018C189.31 121.878 189.347 121.734 189.347 121.585C189.347 121.386 189.287 121.222 189.166 121.095C189.046 120.967 188.885 120.903 188.684 120.903C188.443 120.903 188.255 120.972 188.12 121.11C187.987 121.247 187.921 121.437 187.921 121.682H187.436C187.436 121.331 187.549 121.047 187.774 120.83C188.001 120.613 188.305 120.505 188.684 120.505C189.039 120.505 189.319 120.598 189.526 120.785C189.732 120.971 189.835 121.218 189.835 121.527C189.835 121.903 189.595 122.35 189.117 122.87L188.094 123.979H190.011V124.374ZM192.918 122.746C192.918 123.314 192.821 123.736 192.627 124.013C192.433 124.289 192.13 124.427 191.717 124.427C191.31 124.427 191.009 124.292 190.813 124.023C190.617 123.752 190.516 123.348 190.509 122.812V122.164C190.509 121.603 190.606 121.186 190.8 120.914C190.994 120.641 191.298 120.505 191.712 120.505C192.123 120.505 192.425 120.637 192.619 120.901C192.813 121.163 192.913 121.568 192.918 122.117V122.746ZM192.433 122.083C192.433 121.672 192.375 121.373 192.26 121.186C192.145 120.998 191.962 120.903 191.712 120.903C191.464 120.903 191.283 120.997 191.169 121.184C191.056 121.371 190.997 121.658 190.994 122.046V122.822C190.994 123.235 191.053 123.54 191.172 123.737C191.293 123.933 191.474 124.031 191.717 124.031C191.957 124.031 192.134 123.938 192.249 123.753C192.367 123.568 192.428 123.276 192.433 122.877V122.083ZM196.04 124.374H193.539V124.026L194.861 122.558C195.056 122.336 195.191 122.156 195.264 122.018C195.339 121.878 195.377 121.734 195.377 121.585C195.377 121.386 195.317 121.222 195.196 121.095C195.076 120.967 194.915 120.903 194.714 120.903C194.473 120.903 194.285 120.972 194.15 121.11C194.017 121.247 193.951 121.437 193.951 121.682H193.466C193.466 121.331 193.579 121.047 193.804 120.83C194.031 120.613 194.334 120.505 194.714 120.505C195.069 120.505 195.349 120.598 195.555 120.785C195.762 120.971 195.865 121.218 195.865 121.527C195.865 121.903 195.625 122.35 195.146 122.87L194.124 123.979H196.04V124.374ZM197.259 122.23H197.624C197.853 122.226 198.033 122.166 198.164 122.049C198.295 121.932 198.36 121.774 198.36 121.574C198.36 121.127 198.138 120.903 197.692 120.903C197.482 120.903 197.314 120.964 197.189 121.084C197.065 121.203 197.002 121.361 197.002 121.559H196.517C196.517 121.256 196.628 121.006 196.848 120.806C197.07 120.605 197.351 120.505 197.692 120.505C198.052 120.505 198.334 120.6 198.539 120.791C198.743 120.981 198.845 121.246 198.845 121.585C198.845 121.751 198.791 121.912 198.683 122.067C198.576 122.223 198.43 122.339 198.245 122.416C198.455 122.482 198.617 122.593 198.73 122.746C198.845 122.9 198.903 123.088 198.903 123.31C198.903 123.653 198.791 123.924 198.568 124.125C198.344 124.326 198.053 124.427 197.695 124.427C197.336 124.427 197.044 124.33 196.819 124.136C196.595 123.942 196.483 123.686 196.483 123.368H196.971C196.971 123.569 197.037 123.729 197.168 123.85C197.299 123.971 197.474 124.031 197.695 124.031C197.929 124.031 198.108 123.97 198.232 123.847C198.356 123.725 198.418 123.549 198.418 123.32C198.418 123.099 198.35 122.928 198.214 122.809C198.077 122.69 197.881 122.629 197.624 122.626H197.259V122.23Z" fill="#F5F7F6"/>
<path d="M207.839 124.374H205.338V124.026L206.659 122.558C206.855 122.336 206.99 122.156 207.063 122.018C207.138 121.878 207.176 121.734 207.176 121.585C207.176 121.386 207.115 121.222 206.995 121.095C206.874 120.967 206.713 120.903 206.512 120.903C206.271 120.903 206.083 120.972 205.949 121.11C205.816 121.247 205.75 121.437 205.75 121.682H205.265C205.265 121.331 205.377 121.047 205.603 120.83C205.83 120.613 206.133 120.505 206.512 120.505C206.867 120.505 207.148 120.598 207.354 120.785C207.56 120.971 207.663 121.218 207.663 121.527C207.663 121.903 207.424 122.35 206.945 122.87L205.923 123.979H207.839V124.374ZM210.746 122.746C210.746 123.314 210.649 123.736 210.455 124.013C210.261 124.289 209.958 124.427 209.546 124.427C209.138 124.427 208.837 124.292 208.641 124.023C208.445 123.752 208.344 123.348 208.337 122.812V122.164C208.337 121.603 208.434 121.186 208.628 120.914C208.822 120.641 209.126 120.505 209.54 120.505C209.951 120.505 210.254 120.637 210.448 120.901C210.642 121.163 210.741 121.568 210.746 122.117V122.746ZM210.261 122.083C210.261 121.672 210.204 121.373 210.088 121.186C209.973 120.998 209.79 120.903 209.54 120.903C209.292 120.903 209.111 120.997 208.998 121.184C208.884 121.371 208.826 121.658 208.822 122.046V122.822C208.822 123.235 208.882 123.54 209 123.737C209.121 123.933 209.303 124.031 209.546 124.031C209.785 124.031 209.963 123.938 210.078 123.753C210.195 123.568 210.256 123.276 210.261 122.877V122.083ZM213.869 124.374H211.368V124.026L212.689 122.558C212.885 122.336 213.019 122.156 213.093 122.018C213.168 121.878 213.206 121.734 213.206 121.585C213.206 121.386 213.145 121.222 213.025 121.095C212.904 120.967 212.743 120.903 212.542 120.903C212.301 120.903 212.113 120.972 211.979 121.11C211.846 121.247 211.779 121.437 211.779 121.682H211.294C211.294 121.331 211.407 121.047 211.633 120.83C211.86 120.613 212.163 120.505 212.542 120.505C212.897 120.505 213.178 120.598 213.384 120.785C213.59 120.971 213.693 121.218 213.693 121.527C213.693 121.903 213.454 122.35 212.975 122.87L211.952 123.979H213.869V124.374ZM216.43 123.092H216.96V123.488H216.43V124.374H215.943V123.488H214.204V123.203L215.914 120.557H216.43V123.092ZM214.755 123.092H215.943V121.221L215.885 121.325L214.755 123.092Z" fill="#F5F7F6"/>
<path d="M31.0214 122.965C31.0214 123.533 30.9244 123.955 30.7304 124.231C30.5364 124.507 30.2332 124.645 29.8207 124.645C29.4135 124.645 29.112 124.511 28.9163 124.242C28.7205 123.971 28.6191 123.567 28.6122 123.031V122.383C28.6122 121.822 28.7092 121.405 28.9032 121.132C29.0972 120.86 29.4013 120.723 29.8155 120.723C30.2262 120.723 30.5286 120.855 30.7226 121.119C30.9166 121.382 31.0162 121.787 31.0214 122.336V122.965ZM30.5364 122.302C30.5364 121.891 30.4788 121.592 30.3634 121.405C30.2481 121.216 30.0654 121.122 29.8155 121.122C29.5673 121.122 29.3864 121.215 29.2728 121.402C29.1592 121.589 29.1007 121.877 29.0972 122.265V123.041C29.0972 123.453 29.1566 123.758 29.2754 123.956C29.396 124.152 29.5778 124.25 29.8207 124.25C30.0602 124.25 30.2376 124.157 30.3529 123.972C30.47 123.786 30.5312 123.495 30.5364 123.096V122.302Z" fill="#F5F7F6"/>
<path d="M26.2433 108.679H25.7557V105.446L24.7778 105.806V105.365L26.1673 104.843H26.2433V108.679ZM30.0578 107.051C30.0578 107.619 29.9608 108.041 29.7668 108.317C29.5728 108.593 29.2696 108.731 28.8571 108.731C28.4499 108.731 28.1484 108.597 27.9526 108.328C27.7569 108.057 27.6555 107.653 27.6485 107.116V106.469C27.6485 105.908 27.7455 105.491 27.9395 105.218C28.1335 104.946 28.4376 104.809 28.8519 104.809C29.2626 104.809 29.565 104.941 29.759 105.205C29.953 105.467 30.0526 105.873 30.0578 106.422V107.051ZM29.5728 106.388C29.5728 105.977 29.5151 105.678 29.3998 105.491C29.2844 105.302 29.1018 105.208 28.8519 105.208C28.6037 105.208 28.4228 105.301 28.3092 105.488C28.1956 105.675 28.137 105.963 28.1335 106.351V107.127C28.1335 107.539 28.193 107.844 28.3118 108.042C28.4324 108.238 28.6142 108.335 28.8571 108.335C29.0966 108.335 29.274 108.243 29.3893 108.058C29.5064 107.872 29.5676 107.58 29.5728 107.182V106.388Z" fill="#F5F7F6"/>
<path d="M27.1504 95.5172H24.6494V95.1685L25.9707 93.7004C26.1664 93.4784 26.301 93.2984 26.3744 93.1604C26.4496 93.0205 26.4871 92.8763 26.4871 92.7278C26.4871 92.5285 26.4268 92.3651 26.3063 92.2375C26.1857 92.1099 26.0249 92.0462 25.8239 92.0462C25.5827 92.0462 25.3948 92.1152 25.2602 92.2533C25.1274 92.3896 25.061 92.5801 25.061 92.8248H24.576C24.576 92.4735 24.6887 92.1895 24.9142 91.9727C25.1414 91.756 25.4446 91.6477 25.8239 91.6477C26.1787 91.6477 26.4592 91.7412 26.6654 91.9282C26.8717 92.1134 26.9748 92.3608 26.9748 92.6701C26.9748 93.0459 26.7353 93.4933 26.2564 94.0124L25.234 95.1213H27.1504V95.5172ZM30.0578 93.8892C30.0578 94.4572 29.9608 94.8793 29.7668 95.1554C29.5728 95.4316 29.2696 95.5696 28.8571 95.5696C28.4499 95.5696 28.1484 95.4351 27.9526 95.1659C27.7569 94.895 27.6555 94.4913 27.6485 93.9547V93.3072C27.6485 92.7461 27.7455 92.3293 27.9395 92.0566C28.1335 91.784 28.4376 91.6477 28.8519 91.6477C29.2626 91.6477 29.565 91.7796 29.759 92.0435C29.953 92.3057 30.0526 92.7112 30.0578 93.26V93.8892ZM29.5728 93.2259C29.5728 92.8152 29.5151 92.5163 29.3998 92.3293C29.2844 92.1405 29.1018 92.0462 28.8519 92.0462C28.6037 92.0462 28.4228 92.1397 28.3092 92.3267C28.1956 92.5137 28.137 92.8012 28.1335 93.1892V93.9652C28.1335 94.3777 28.193 94.6827 28.3118 94.8802C28.4324 95.0759 28.6142 95.1738 28.8571 95.1738C29.0966 95.1738 29.274 95.0811 29.3893 94.8959C29.5064 94.7106 29.5676 94.4187 29.5728 94.0203V93.2259Z" fill="#F5F7F6"/>
<path d="M25.3546 79.7532H25.719C25.948 79.7497 26.128 79.6894 26.2591 79.5723C26.3901 79.4552 26.4557 79.297 26.4557 79.0978C26.4557 78.6504 26.2328 78.4266 25.7872 78.4266C25.5774 78.4266 25.4096 78.4869 25.2838 78.6075C25.1597 78.7264 25.0977 78.8846 25.0977 79.0821H24.6127C24.6127 78.7797 24.7228 78.5289 24.943 78.3296C25.165 78.1287 25.4464 78.0282 25.7872 78.0282C26.1472 78.0282 26.4295 78.1234 26.634 78.3139C26.8384 78.5044 26.9407 78.7692 26.9407 79.1083C26.9407 79.2743 26.8865 79.4351 26.7781 79.5907C26.6715 79.7462 26.5256 79.8624 26.3403 79.9393C26.5501 80.0058 26.7117 80.1159 26.8253 80.2697C26.9407 80.4235 26.9984 80.6114 26.9984 80.8333C26.9984 81.1759 26.8865 81.4477 26.6628 81.6486C26.4391 81.8496 26.1481 81.9501 25.7898 81.9501C25.4315 81.9501 25.1396 81.8531 24.9142 81.6591C24.6904 81.4651 24.5786 81.2091 24.5786 80.891H25.0662C25.0662 81.092 25.1318 81.2528 25.2628 81.3734C25.3939 81.494 25.5696 81.5543 25.7898 81.5543C26.024 81.5543 26.2031 81.4931 26.3272 81.3708C26.4513 81.2484 26.5134 81.0728 26.5134 80.8438C26.5134 80.6218 26.4452 80.4514 26.3089 80.3326C26.1725 80.2137 25.9759 80.1526 25.719 80.1491H25.3546V79.7532ZM30.0578 80.2697C30.0578 80.8377 29.9608 81.2598 29.7668 81.5359C29.5728 81.8121 29.2696 81.9501 28.8571 81.9501C28.4499 81.9501 28.1484 81.8156 27.9526 81.5464C27.7569 81.2755 27.6555 80.8718 27.6485 80.3352V79.6877C27.6485 79.1266 27.7455 78.7098 27.9395 78.4371C28.1335 78.1645 28.4376 78.0282 28.8519 78.0282C29.2626 78.0282 29.565 78.1601 29.759 78.424C29.953 78.6862 30.0526 79.0917 30.0578 79.6405V80.2697ZM29.5728 79.6064C29.5728 79.1957 29.5151 78.8968 29.3998 78.7098C29.2844 78.521 29.1018 78.4266 28.8519 78.4266C28.6037 78.4266 28.4228 78.5202 28.3092 78.7072C28.1956 78.8942 28.137 79.1817 28.1335 79.5697V80.3457C28.1335 80.7582 28.193 81.0631 28.3118 81.2606C28.4324 81.4564 28.6142 81.5543 28.8571 81.5543C29.0966 81.5543 29.274 81.4616 29.3893 81.2764C29.5064 81.0911 29.5676 80.7992 29.5728 80.4007V79.6064Z" fill="#F5F7F6"/>
<path d="M26.6969 67.4561H27.2264V67.8519H26.6969V68.738H26.2093V67.8519H24.4711V67.5662L26.1804 64.9209H26.6969V67.4561ZM25.0216 67.4561H26.2093V65.5842L26.1516 65.6891L25.0216 67.4561ZM30.0578 67.11C30.0578 67.678 29.9608 68.1001 29.7668 68.3763C29.5728 68.6524 29.2696 68.7905 28.8571 68.7905C28.4499 68.7905 28.1484 68.6559 27.9526 68.3867C27.7569 68.1158 27.6555 67.7121 27.6485 67.1755V66.528C27.6485 65.967 27.7455 65.5501 27.9395 65.2775C28.1335 65.0048 28.4376 64.8685 28.8519 64.8685C29.2626 64.8685 29.565 65.0004 29.759 65.2644C29.953 65.5265 30.0526 65.932 30.0578 66.4808V67.11ZM29.5728 66.4467C29.5728 66.036 29.5151 65.7371 29.3998 65.5501C29.2844 65.3614 29.1018 65.267 28.8519 65.267C28.6037 65.267 28.4228 65.3605 28.3092 65.5475C28.1956 65.7345 28.137 66.022 28.1335 66.41V67.186C28.1335 67.5985 28.193 67.9035 28.3118 68.101C28.4324 68.2967 28.6142 68.3946 28.8571 68.3946C29.0966 68.3946 29.274 68.302 29.3893 68.1167C29.5064 67.9314 29.5676 67.6396 29.5728 67.2411V66.4467Z" fill="#F5F7F6"/>
<path d="M24.8722 54.1984L25.0662 52.2951H27.022V52.7434H25.4778L25.3625 53.7842C25.5495 53.6741 25.7618 53.619 25.9995 53.619C26.3473 53.619 26.6235 53.7344 26.828 53.9651C27.0324 54.194 27.1347 54.5042 27.1347 54.8957C27.1347 55.289 27.0281 55.5992 26.8149 55.8264C26.6034 56.0519 26.3071 56.1646 25.9261 56.1646C25.5888 56.1646 25.3135 56.0711 25.1003 55.8841C24.8871 55.6971 24.7656 55.4384 24.7359 55.1081H25.1947C25.2244 55.3266 25.3022 55.4917 25.428 55.6036C25.5538 55.7137 25.7199 55.7687 25.9261 55.7687C26.1516 55.7687 26.3281 55.6918 26.4557 55.538C26.585 55.3842 26.6497 55.1719 26.6497 54.901C26.6497 54.6458 26.5798 54.4413 26.44 54.2875C26.3019 54.132 26.1175 54.0542 25.8868 54.0542C25.6753 54.0542 25.5093 54.1005 25.3887 54.1931L25.2602 54.298L24.8722 54.1984ZM30.0578 54.4841C30.0578 55.0522 29.9608 55.4742 29.7668 55.7504C29.5728 56.0265 29.2696 56.1646 28.8571 56.1646C28.4499 56.1646 28.1484 56.03 27.9526 55.7609C27.7569 55.49 27.6555 55.0862 27.6485 54.5497V53.9021C27.6485 53.3411 27.7455 52.9243 27.9395 52.6516C28.1335 52.379 28.4376 52.2426 28.8519 52.2426C29.2626 52.2426 29.565 52.3746 29.759 52.6385C29.953 52.9007 30.0526 53.3061 30.0578 53.8549V54.4841ZM29.5728 53.8209C29.5728 53.4101 29.5151 53.1113 29.3998 52.9243C29.2844 52.7355 29.1018 52.6411 28.8519 52.6411C28.6037 52.6411 28.4228 52.7346 28.3092 52.9216C28.1956 53.1087 28.137 53.3962 28.1335 53.7842V54.5602C28.1335 54.9726 28.193 55.2776 28.3118 55.4751C28.4324 55.6709 28.6142 55.7687 28.8571 55.7687C29.0966 55.7687 29.274 55.6761 29.3893 55.4909C29.5064 55.3056 29.5676 55.0137 29.5728 54.6152V53.8209Z" fill="#F5F7F6"/>
<path d="M26.5527 39.1323V39.5439H26.4636C26.086 39.5509 25.7854 39.6627 25.5617 39.8795C25.338 40.0962 25.2087 40.4012 25.1737 40.7944C25.3747 40.5637 25.6491 40.4484 25.9969 40.4484C26.329 40.4484 26.5938 40.5655 26.7913 40.7997C26.9905 41.0339 27.0901 41.3362 27.0901 41.7067C27.0901 42.1 26.9826 42.4146 26.7677 42.6505C26.5544 42.8865 26.2678 43.0045 25.9078 43.0045C25.5425 43.0045 25.2462 42.8646 25.019 42.585C24.7918 42.3036 24.6782 41.9418 24.6782 41.4996V41.3135C24.6782 40.6109 24.8276 40.0743 25.1265 39.7038C25.4271 39.3315 25.8737 39.141 26.4662 39.1323H26.5527ZM25.9156 40.8521C25.7496 40.8521 25.5967 40.9019 25.4568 41.0015C25.317 41.1011 25.22 41.2261 25.1658 41.3764V41.5547C25.1658 41.8693 25.2366 42.1227 25.3782 42.315C25.5198 42.5072 25.6963 42.6033 25.9078 42.6033C26.1262 42.6033 26.2975 42.523 26.4216 42.3622C26.5474 42.2014 26.6104 41.9908 26.6104 41.7303C26.6104 41.4682 26.5466 41.2567 26.419 41.0959C26.2931 40.9334 26.1254 40.8521 25.9156 40.8521ZM30.0578 41.324C30.0578 41.892 29.9608 42.3141 29.7668 42.5902C29.5728 42.8664 29.2696 43.0045 28.8571 43.0045C28.4499 43.0045 28.1484 42.8699 27.9526 42.6007C27.7569 42.3298 27.6555 41.9261 27.6485 41.3895V40.742C27.6485 40.1809 27.7455 39.7641 27.9395 39.4915C28.1335 39.2188 28.4376 39.0825 28.8519 39.0825C29.2626 39.0825 29.565 39.2144 29.759 39.4783C29.953 39.7405 30.0526 40.146 30.0578 40.6948V41.324ZM29.5728 40.6607C29.5728 40.25 29.5151 39.9511 29.3998 39.7641C29.2844 39.5753 29.1018 39.481 28.8519 39.481C28.6037 39.481 28.4228 39.5745 28.3092 39.7615C28.1956 39.9485 28.137 40.236 28.1335 40.624V41.4C28.1335 41.8125 28.193 42.1175 28.3118 42.315C28.4324 42.5107 28.6142 42.6086 28.8571 42.6086C29.0966 42.6086 29.274 42.516 29.3893 42.3307C29.5064 42.1454 29.5676 41.8536 29.5728 41.4551V40.6607Z" fill="#F5F7F6"/>
<path d="M27.1137 25.7877L25.5329 29.3322H25.0243L26.5999 25.9135H24.534V25.515H27.1137V25.7877ZM30.0578 27.7041C30.0578 28.2721 29.9608 28.6942 29.7668 28.9704C29.5728 29.2465 29.2696 29.3846 28.8571 29.3846C28.4499 29.3846 28.1484 29.25 27.9526 28.9809C27.7569 28.7099 27.6555 28.3062 27.6485 27.7697V27.1221C27.6485 26.5611 27.7455 26.1442 27.9395 25.8716C28.1335 25.5989 28.4376 25.4626 28.8519 25.4626C29.2626 25.4626 29.565 25.5946 29.759 25.8585C29.953 26.1206 30.0526 26.5261 30.0578 27.0749V27.7041ZM29.5728 27.0408C29.5728 26.6301 29.5151 26.3312 29.3998 26.1442C29.2844 25.9555 29.1018 25.8611 28.8519 25.8611C28.6037 25.8611 28.4228 25.9546 28.3092 26.1416C28.1956 26.3286 28.137 26.6161 28.1335 27.0041V27.7801C28.1335 28.1926 28.193 28.4976 28.3118 28.6951C28.4324 28.8908 28.6142 28.9887 28.8571 28.9887C29.0966 28.9887 29.274 28.8961 29.3893 28.7108C29.5064 28.5256 29.5676 28.2337 29.5728 27.8352V27.0408Z" fill="#F5F7F6"/>
<path d="M210.388 61.0426H192.163L174.563 48.1871L157.117 61.9591L139.054 55.3813L121.916 81.3924H103.862L86.1239 94.5155L68.8318 74.4739L51.2316 81.2058V114.833H210.502L210.388 61.0426Z" fill="url(#paint0_linear_318_105)"/>
<path d="M86.0509 95.14L68.694 75.0173L51.3938 81.6356L51.0694 80.7759L68.9697 73.9305L86.1888 93.899L103.708 80.9381H121.673L138.876 54.8216L157.036 61.44L174.547 47.6112L192.309 60.5802H210.388V61.5049H192.009L174.571 48.7629L157.198 62.4781L139.241 55.9328L122.168 81.8546H104.008L86.0509 95.14Z" fill="url(#paint1_linear_318_105)"/>
<path d="M53.1944 81.2058C53.1944 82.2927 52.3184 83.1686 51.2316 83.1686C50.1447 83.1686 49.2688 82.2927 49.2688 81.2058C49.2688 80.119 50.1447 79.243 51.2316 79.243C52.3184 79.243 53.1944 80.119 53.1944 81.2058Z" fill="#F5F7F6"/>
<path d="M70.7946 74.474C70.7946 75.5608 69.9187 76.4367 68.8318 76.4367C67.745 76.4367 66.869 75.5608 66.869 74.474C66.869 73.3871 67.745 72.5112 68.8318 72.5112C69.9187 72.5031 70.7946 73.3871 70.7946 74.474Z" fill="#F5F7F6"/>
<path d="M88.0867 94.5155C88.0867 95.6024 87.2026 96.4783 86.1239 96.4783C85.037 96.4783 84.1611 95.5943 84.1611 94.5155C84.1611 93.4287 85.037 92.5527 86.1239 92.5527C87.2107 92.5527 88.0867 93.4287 88.0867 94.5155Z" fill="#F5F7F6"/>
<path d="M105.825 81.3924C105.825 82.4792 104.949 83.3551 103.862 83.3551C102.775 83.3551 101.899 82.4711 101.899 81.3924C101.899 80.3055 102.775 79.4296 103.862 79.4296C104.949 79.4296 105.825 80.3136 105.825 81.3924Z" fill="#F5F7F6"/>
<path d="M123.887 81.3924C123.887 82.4792 123.011 83.3551 121.925 83.3551C120.838 83.3551 119.962 82.4711 119.962 81.3924C119.962 80.3055 120.846 79.4296 121.925 79.4296C123.003 79.4296 123.887 80.3136 123.887 81.3924Z" fill="#F5F7F6"/>
<path d="M141.025 55.3812C141.025 56.4681 140.149 57.344 139.062 57.344C137.976 57.344 137.1 56.46 137.1 55.3812C137.1 54.2944 137.976 53.4185 139.062 53.4185C140.141 53.4185 141.025 54.2944 141.025 55.3812Z" fill="#F5F7F6"/>
<path d="M159.08 61.9591C159.08 63.046 158.204 63.9219 157.117 63.9219C156.03 63.9219 155.154 63.046 155.154 61.9591C155.154 60.8723 156.03 59.9963 157.117 59.9963C158.204 59.9963 159.08 60.8723 159.08 61.9591Z" fill="#F5F7F6"/>
<path d="M176.526 48.1872C176.526 49.274 175.642 50.1499 174.563 50.1499C173.476 50.1499 172.6 49.2659 172.6 48.1872C172.6 47.1003 173.476 46.2244 174.563 46.2244C175.65 46.2244 176.526 47.1003 176.526 48.1872Z" fill="#F5F7F6"/>
<path d="M194.126 61.0425C194.126 62.1293 193.25 63.0053 192.163 63.0053C191.076 63.0053 190.201 62.1293 190.201 61.0425C190.201 59.9557 191.076 59.0797 192.163 59.0797C193.242 59.0797 194.126 59.9557 194.126 61.0425Z" fill="#F5F7F6"/>
<path d="M212.351 61.1155C212.351 62.2023 211.467 63.0783 210.388 63.0783C209.301 63.0783 208.425 62.1942 208.425 61.1155C208.425 60.0287 209.301 59.1527 210.388 59.1527C211.467 59.1527 212.351 60.0368 212.351 61.1155Z" fill="#F5F7F6"/>
<defs>
<linearGradient id="paint0_linear_318_105" x1="130.866" y1="125.163" x2="130.866" y2="59.6623" gradientUnits="userSpaceOnUse">
<stop offset="0.0101" stop-color="white" stop-opacity="0"/>
<stop offset="1" stop-color="white"/>
</linearGradient>
<linearGradient id="paint1_linear_318_105" x1="51.3468" y1="71.3757" x2="175.994" y2="71.3757" gradientUnits="userSpaceOnUse">
<stop stop-color="#00EAD1"/>
<stop offset="0.1291" stop-color="#00E0D1"/>
<stop offset="0.3516" stop-color="#00C4CF"/>
<stop offset="0.6406" stop-color="#0097CE"/>
<stop offset="0.9819" stop-color="#0058CB"/>
<stop offset="0.9999" stop-color="#0055CB"/>
</linearGradient>
</defs>
</svg>
