<svg width="194" height="118" viewBox="0 0 194 118" fill="none" xmlns="http://www.w3.org/2000/svg">
<rect width="193.846" height="117.605" rx="14.7953" fill="black"/>
<rect x="0.308235" y="0.308235" width="193.229" height="116.989" rx="14.4871" stroke="white" stroke-opacity="0.5" stroke-width="0.616471"/>
<path d="M170.43 50.116V92.9243H23.8779V39.5558C30.5368 39.5558 30.5368 50.1079 37.1957 50.1079C43.8627 50.1079 43.8627 28.2495 50.5216 28.2495C57.1805 28.2495 57.1805 64.8126 63.8475 64.8126C70.5064 64.8126 70.5064 39.5558 77.1653 39.5558C83.8241 39.5558 83.8242 56.5153 90.4831 56.5153C97.1501 56.5153 97.1501 49.3536 103.809 49.3536C110.468 49.3536 110.468 59.5325 117.135 59.5325C123.794 59.5325 123.794 49.167 130.461 49.167C137.12 49.167 137.12 73.1017 143.779 73.1017C150.446 73.1017 150.446 29.5634 157.104 29.5634C163.763 29.5716 163.763 50.116 170.43 50.116Z" fill="url(#paint0_linear_318_184)"/>
<path d="M143.779 73.483C140.161 73.483 138.507 67.5379 136.755 61.2439C135.157 55.4935 133.502 49.5564 130.461 49.5564C127.33 49.5564 125.773 51.9896 124.11 54.5688C122.415 57.2048 120.671 59.9219 117.135 59.9219C113.599 59.9219 111.847 57.2454 110.16 54.658C108.505 52.1275 106.94 49.743 103.817 49.743C100.654 49.743 99.0885 51.4219 97.434 53.2062C95.7388 55.023 93.9869 56.9047 90.4911 56.9047C86.9062 56.9047 85.1625 52.4681 83.4835 48.1857C81.8938 44.1303 80.2473 39.9452 77.1734 39.9452C74.1319 39.9452 72.4773 46.2229 70.8795 52.2897C69.1275 58.9243 67.473 65.1939 63.8556 65.1939C60.2058 65.1939 58.5593 56.1585 56.8236 46.596C55.2907 38.1771 53.5469 28.6308 50.5378 28.6308C47.4882 28.6308 45.8336 34.0487 44.2358 39.2964C42.4839 45.055 40.8212 50.4972 37.2119 50.4972C33.6757 50.4972 31.9237 47.7234 30.2367 45.0468C28.5821 42.4271 27.0167 39.9452 23.8941 39.9452C23.6832 39.9452 23.5211 39.7749 23.5211 39.5721C23.5211 39.3612 23.6914 39.199 23.8941 39.199C27.4304 39.199 29.1823 41.9729 30.8694 44.6494C32.5239 47.2692 34.0893 49.7511 37.2119 49.7511C40.2616 49.7511 41.9161 44.325 43.5139 39.0855C45.2658 33.3269 46.9286 27.8927 50.5378 27.8927C54.1795 27.8927 55.826 36.9199 57.5698 46.4824C59.1027 54.9095 60.8465 64.4558 63.8637 64.4558C66.9052 64.4558 68.5598 58.1781 70.1576 52.1113C71.9096 45.4767 73.5641 39.2071 77.1815 39.2071C80.7664 39.2071 82.5102 43.6437 84.1892 47.9262C85.7789 51.9815 87.4253 56.1666 90.4993 56.1666C93.6706 56.1666 95.2278 54.4877 96.8905 52.7034C98.5856 50.8866 100.329 49.0049 103.825 49.0049C107.361 49.0049 109.105 51.6814 110.8 54.2606C112.455 56.7912 114.02 59.1757 117.151 59.1757C120.274 59.1757 121.839 56.7425 123.494 54.1714C125.189 51.5354 126.941 48.8183 130.477 48.8183C134.094 48.8183 135.749 54.7635 137.501 61.0574C139.099 66.8079 140.753 72.753 143.795 72.753C146.804 72.753 148.548 61.3575 150.089 51.3083C152.133 37.9662 153.722 29.2229 157.129 29.2229C160.73 29.2229 162.466 34.5759 164.145 39.7506C165.742 44.6738 167.389 49.7592 170.447 49.7592C170.657 49.7592 170.82 49.9295 170.82 50.1323C170.82 50.3431 170.649 50.5054 170.447 50.5054C166.837 50.5054 165.102 45.1523 163.423 39.9695C161.825 35.0463 160.178 29.9609 157.121 29.9609C154.112 29.9609 152.368 41.3565 150.827 51.4056C148.775 64.7396 147.177 73.483 143.779 73.483Z" fill="white"/>
<path d="M53.4334 28.1604C53.4334 29.8231 52.087 31.1776 50.4161 31.1776C48.7535 31.1776 47.399 29.8312 47.399 28.1604C47.399 26.4977 48.7453 25.1432 50.4161 25.1432C52.0788 25.1432 53.4334 26.4977 53.4334 28.1604Z" fill="#018DCE"/>
<path d="M39.4829 49.743C39.4829 51.4057 38.1365 52.7602 36.4657 52.7602C34.803 52.7602 33.4485 51.4138 33.4485 49.743C33.4485 48.0803 34.7949 46.7258 36.4657 46.7258C38.1365 46.7258 39.4829 48.0722 39.4829 49.743Z" fill="#018DCE"/>
<path d="M66.6051 64.618C66.6051 66.2807 65.2587 67.6352 63.5879 67.6352C61.9252 67.6352 60.5708 66.2888 60.5708 64.618C60.5708 62.9553 61.9171 61.6008 63.5879 61.6008C65.2587 61.6089 66.6051 62.9553 66.6051 64.618Z" fill="#018DCE"/>
<path d="M79.9553 39.7749C79.9553 41.4376 78.609 42.7921 76.9382 42.7921C75.2755 42.7921 73.921 41.4457 73.921 39.7749C73.921 38.1122 75.2674 36.7577 76.9382 36.7577C78.6009 36.7658 79.9553 38.1122 79.9553 39.7749Z" fill="#018DCE"/>
<path d="M93.8166 56.2235C93.8166 57.8862 92.4702 59.2407 90.7994 59.2407C89.1367 59.2407 87.7822 57.8943 87.7822 56.2235C87.7822 54.5608 89.1286 53.2063 90.7994 53.2063C92.4621 53.2063 93.8166 54.5527 93.8166 56.2235Z" fill="#018DCE"/>
<path d="M106.834 49.8646C106.834 51.5273 105.488 52.8818 103.817 52.8818C102.154 52.8818 100.8 51.5354 100.8 49.8646C100.8 48.2019 102.146 46.8474 103.817 46.8474C105.488 46.8474 106.834 48.2019 106.834 49.8646Z" fill="#018DCE"/>
<path d="M119.657 59.2082C119.657 60.8709 118.311 62.2254 116.64 62.2254C114.977 62.2254 113.623 60.879 113.623 59.2082C113.623 57.5455 114.969 56.191 116.64 56.191C118.311 56.191 119.657 57.5455 119.657 59.2082Z" fill="#018DCE"/>
<path d="M133.721 49.0617C133.721 50.7244 132.375 52.0789 130.704 52.0789C129.041 52.0789 127.687 50.7325 127.687 49.0617C127.687 47.399 129.033 46.0446 130.704 46.0446C132.375 46.0446 133.721 47.399 133.721 49.0617Z" fill="#018DCE"/>
<path d="M146.455 72.7855C146.455 74.4482 145.109 75.8027 143.438 75.8027C141.775 75.8027 140.421 74.4563 140.421 72.7855C140.421 71.1228 141.767 69.7683 143.438 69.7683C145.101 69.7683 146.455 71.1147 146.455 72.7855Z" fill="#018DCE"/>
<path d="M160.43 29.8554C160.43 31.5181 159.083 32.8726 157.413 32.8726C155.75 32.8726 154.395 31.5262 154.395 29.8554C154.395 28.1927 155.742 26.8383 157.413 26.8383C159.075 26.8383 160.43 28.1846 160.43 29.8554Z" fill="#018DCE"/>
<defs>
<linearGradient id="paint0_linear_318_184" x1="97.1541" y1="94.3077" x2="97.1541" y2="27.3682" gradientUnits="userSpaceOnUse">
<stop offset="0.0101" stop-opacity="0"/>
<stop offset="1" stop-color="#0198CE"/>
</linearGradient>
</defs>
</svg>
